<svg width="32" height="26" viewBox="0 0 32 26" fill="none" xmlns="http://www.w3.org/2000/svg">
<g clip-path="url(#clip0_9_8)">
<path d="M8.12346 22.8622C9.5969 22.8622 10.7914 21.6678 10.7914 20.1944C10.7914 18.7209 9.5969 17.5264 8.12346 17.5264C6.65002 17.5264 5.45557 18.7209 5.45557 20.1944C5.45557 21.6678 6.65002 22.8622 8.12346 22.8622Z" stroke="#800080" stroke-width="1.28276" stroke-miterlimit="10" stroke-linecap="round"/>
<path d="M6.97607 7.18945H23.1146" stroke="#800080" stroke-width="1.28276" stroke-miterlimit="10" stroke-linecap="round"/>
<path d="M8.38892 10.417H22.4092" stroke="#800080" stroke-width="1.28276" stroke-miterlimit="10" stroke-linecap="round"/>
<path d="M7.66113 17.5248H18.1138C19.2586 17.5248 20.2784 16.7975 20.6505 15.7142L24.9585 3.18066C25.3307 2.09737 26.3495 1.37012 27.4953 1.37012H30.6292" stroke="#800080" stroke-width="1.28276" stroke-miterlimit="10" stroke-linecap="round"/>
<path d="M8.12359 20.5791C8.33639 20.5791 8.5089 20.4066 8.5089 20.1939C8.5089 19.981 8.33639 19.8086 8.12359 19.8086C7.91079 19.8086 7.73828 19.981 7.73828 20.1939C7.73828 20.4066 7.91079 20.5791 8.12359 20.5791Z" stroke="#800080" stroke-width="1.06897" stroke-miterlimit="10" stroke-linecap="round"/>
<path d="M17.8222 22.8622C19.2956 22.8622 20.49 21.6678 20.49 20.1944C20.49 18.7209 19.2956 17.5264 17.8222 17.5264C16.3487 17.5264 15.1543 18.7209 15.1543 20.1944C15.1543 21.6678 16.3487 22.8622 17.8222 22.8622Z" stroke="#800080" stroke-width="1.28276" stroke-miterlimit="10" stroke-linecap="round"/>
<path d="M21.1874 14.1519H7.14791C6.67788 14.1519 6.26535 13.826 6.13624 13.3518L3.75481 4.62867C3.63578 4.19369 3.94745 3.75977 4.37916 3.75977H22.3776" stroke="#800080" stroke-width="1.28276" stroke-miterlimit="10" stroke-linecap="round"/>
<path d="M1 24.5274C1 24.5274 11.26 21.0556 25.1058 24.5274" stroke="#800080" stroke-width="1.28276" stroke-miterlimit="10" stroke-linecap="round"/>
</g>
<defs>
<clipPath id="clip0_9_8">
<rect width="32" height="26" fill="white"/>
</clipPath>
</defs>
</svg>
