<svg width="116" height="45" viewBox="0 0 116 45" fill="none" xmlns="http://www.w3.org/2000/svg">
<g clip-path="url(#clip0_9_8)">
<path d="M12.9135 35.5628C15.4371 35.5628 17.483 33.7049 17.483 31.4129C17.483 29.1208 15.4371 27.2627 12.9135 27.2627C10.3898 27.2627 8.34399 29.1208 8.34399 31.4129C8.34399 33.7049 10.3898 35.5628 12.9135 35.5628Z" stroke="#800080" stroke-width="1.28276" stroke-miterlimit="10" stroke-linecap="round"/>
<path d="M10.9485 11.1836H38.59" stroke="#800080" stroke-width="1.28276" stroke-miterlimit="10" stroke-linecap="round"/>
<path d="M13.3682 16.2041H37.3817" stroke="#800080" stroke-width="1.28276" stroke-miterlimit="10" stroke-linecap="round"/>
<path d="M12.1216 27.2613H30.0246C31.9854 27.2613 33.732 26.1299 34.3694 24.4448L41.748 4.94823C42.3855 3.26311 44.1304 2.13184 46.0929 2.13184H51.4606" stroke="#800080" stroke-width="1.28276" stroke-miterlimit="10" stroke-linecap="round"/>
<path d="M12.9139 32.012C13.2783 32.012 13.5738 31.7437 13.5738 31.4128C13.5738 31.0817 13.2783 30.8135 12.9139 30.8135C12.5494 30.8135 12.2539 31.0817 12.2539 31.4128C12.2539 31.7437 12.5494 32.012 12.9139 32.012Z" stroke="#800080" stroke-width="1.06897" stroke-miterlimit="10" stroke-linecap="round"/>
<path d="M29.5253 35.5628C32.0489 35.5628 34.0946 33.7049 34.0946 31.4129C34.0946 29.1208 32.0489 27.2627 29.5253 27.2627C27.0015 27.2627 24.9558 29.1208 24.9558 31.4129C24.9558 33.7049 27.0015 35.5628 29.5253 35.5628Z" stroke="#800080" stroke-width="1.28276" stroke-miterlimit="10" stroke-linecap="round"/>
<path d="M35.2892 22.0141H11.2428C10.4378 22.0141 9.7312 21.5072 9.51006 20.7695L5.43123 7.20026C5.22736 6.52362 5.76118 5.84863 6.50059 5.84863H37.3277" stroke="#800080" stroke-width="1.28276" stroke-miterlimit="10" stroke-linecap="round"/>
<path d="M0.712891 38.1532C0.712891 38.1532 18.2858 32.7526 42.0004 38.1532" stroke="#800080" stroke-width="1.28276" stroke-miterlimit="10" stroke-linecap="round"/>
<path d="M70.7786 19.26H70.6886L69.1586 22.32L65.0786 29.73L61.0886 22.35L59.4986 19.05H59.4086V33H55.1186V12.06H59.9486L65.0786 21.87H65.1386L70.2086 12.06H75.0686V33H70.7786V19.26ZM81.6787 15.57C80.7787 15.57 80.1187 15.37 79.6987 14.97C79.2987 14.55 79.0987 14.02 79.0987 13.38V12.72C79.0987 12.08 79.2987 11.56 79.6987 11.16C80.1187 10.74 80.7787 10.53 81.6787 10.53C82.5787 10.53 83.2287 10.74 83.6287 11.16C84.0487 11.56 84.2587 12.08 84.2587 12.72V13.38C84.2587 14.02 84.0487 14.55 83.6287 14.97C83.2287 15.37 82.5787 15.57 81.6787 15.57ZM79.4587 17.25H83.8987V33H79.4587V17.25ZM88.0427 33V17.25H92.4827V19.92H92.6627C92.9427 19.1 93.4327 18.39 94.1327 17.79C94.8327 17.19 95.8027 16.89 97.0427 16.89C98.6627 16.89 99.8827 17.43 100.703 18.51C101.543 19.59 101.963 21.13 101.963 23.13V33H97.5227V23.49C97.5227 22.47 97.3627 21.72 97.0427 21.24C96.7227 20.74 96.1527 20.49 95.3327 20.49C94.9727 20.49 94.6227 20.54 94.2827 20.64C93.9427 20.72 93.6327 20.86 93.3527 21.06C93.0927 21.26 92.8827 21.51 92.7227 21.81C92.5627 22.09 92.4827 22.42 92.4827 22.8V33H88.0427ZM111.434 33C109.894 33 108.724 32.61 107.924 31.83C107.144 31.05 106.754 29.91 106.754 28.41V20.7H104.534V17.25H105.644C106.244 17.25 106.654 17.11 106.874 16.83C107.094 16.53 107.204 16.11 107.204 15.57V12.99H111.194V17.25H114.314V20.7H111.194V29.55H114.074V33H111.434Z" fill="#21313C"/>
</g>
<defs>
<clipPath id="clip0_9_8">
<rect width="115.809" height="45" fill="white"/>
</clipPath>
</defs>
</svg>
