<svg id="svg" version="1.1" xmlns="http://www.w3.org/2000/svg" xmlns:xlink="http://www.w3.org/1999/xlink" width="400" height="400" viewBox="0, 0, 400,400"><g id="svgg"><path id="path0" d="M92.560 104.652 L 91.319 105.904 91.107 115.571 C 90.918 124.158,90.967 125.310,91.547 125.891 C 92.113 126.459,92.200 127.779,92.200 135.852 C 92.200 142.762,92.329 145.286,92.700 145.659 C 93.732 146.693,93.298 161.544,92.255 160.919 C 91.943 160.732,91.949 160.831,92.274 161.233 C 92.535 161.556,92.805 162.746,92.874 163.877 C 92.964 165.368,93.125 165.829,93.457 165.552 C 94.206 164.931,94.517 170.063,94.196 177.756 C 93.939 183.928,93.978 184.706,94.554 184.927 C 95.322 185.222,95.550 199.736,94.793 200.204 C 94.570 200.342,94.470 200.589,94.571 200.753 C 94.673 200.917,94.798 201.877,94.850 202.885 C 94.916 204.145,95.099 204.660,95.438 204.530 C 96.238 204.223,96.537 208.992,96.224 217.070 C 95.961 223.837,95.992 224.400,96.625 224.400 C 97.260 224.400,97.297 225.135,97.116 234.200 C 96.960 242.027,97.025 244.000,97.436 244.000 C 98.301 244.000,98.530 247.337,98.237 255.681 C 97.990 262.692,98.029 263.600,98.579 263.600 C 99.083 263.600,99.209 264.185,99.249 266.700 C 99.318 271.084,99.317 271.198,99.157 277.319 C 99.041 281.789,99.122 282.905,99.586 283.191 C 99.957 283.421,100.218 284.477,100.327 286.195 C 100.506 289.001,102.157 291.600,103.760 291.600 C 104.126 291.600,104.529 291.870,104.655 292.200 C 104.858 292.729,111.094 292.800,157.443 292.800 C 203.894 292.800,210.000 292.730,210.000 292.200 C 210.000 291.848,210.372 291.595,210.900 291.587 C 211.907 291.573,212.935 290.359,213.344 288.700 C 213.493 288.095,213.882 287.600,214.208 287.600 C 214.632 287.600,214.800 287.146,214.800 286.000 C 214.800 284.844,214.633 284.400,214.200 284.400 C 213.781 284.400,213.600 283.978,213.600 283.000 L 213.600 281.600 163.386 281.600 C 116.825 281.600,113.093 281.551,112.086 280.920 C 109.131 279.071,108.401 277.351,108.397 272.239 C 108.395 270.017,108.206 267.045,107.977 265.632 C 107.571 263.129,107.072 253.046,106.450 234.777 C 106.281 229.815,106.010 225.540,105.848 225.278 C 105.573 224.833,105.223 217.441,104.441 195.557 C 104.263 190.583,103.985 186.299,103.822 186.035 C 103.659 185.772,103.367 181.202,103.172 175.878 C 102.565 159.295,102.050 148.664,101.772 147.000 C 101.625 146.120,101.352 141.260,101.166 136.200 C 100.980 131.140,100.652 123.850,100.437 120.000 C 100.222 116.150,99.991 110.885,99.923 108.300 C 99.852 105.580,99.632 103.571,99.400 103.530 C 96.483 103.012,93.739 103.462,92.560 104.652 M148.418 121.846 C 136.007 125.991,129.993 139.366,134.770 152.200 C 136.012 155.537,136.373 155.727,138.708 154.268 C 141.984 152.221,145.156 151.056,151.306 149.639 C 157.894 148.121,174.998 151.561,177.005 154.808 C 177.489 155.592,178.707 155.189,179.144 154.100 C 186.528 135.679,167.333 115.529,148.418 121.846 M160.641 126.596 C 167.642 130.085,169.565 138.897,164.442 144.019 C 157.532 150.929,145.839 145.764,145.835 135.800 C 145.832 127.869,153.558 123.066,160.641 126.596 M120.216 199.983 C 119.128 201.184,119.692 213.197,120.886 214.278 C 121.641 214.961,123.725 215.006,159.942 215.120 C 204.637 215.259,200.800 215.635,200.800 211.121 C 200.800 205.618,200.039 200.670,199.075 199.909 C 197.622 198.761,121.256 198.833,120.216 199.983 M130.838 204.827 C 132.231 205.819,132.484 208.260,131.300 209.277 C 128.304 211.850,124.562 207.665,127.458 204.981 C 128.749 203.785,129.337 203.758,130.838 204.827 M139.238 204.827 C 141.442 206.396,140.484 210.000,137.864 210.000 C 135.067 210.000,133.712 206.514,135.854 204.829 C 137.176 203.789,137.780 203.789,139.238 204.827 M147.969 205.231 C 149.456 206.718,149.512 207.546,148.219 208.942 C 146.394 210.910,143.200 209.675,143.200 207.000 C 143.200 204.241,145.956 203.218,147.969 205.231 M156.358 205.160 C 158.427 207.093,157.371 210.000,154.600 210.000 C 151.925 210.000,150.690 206.806,152.658 204.981 C 154.036 203.704,154.841 203.744,156.358 205.160 M121.410 227.189 C 119.844 228.919,121.136 241.274,122.933 241.756 C 124.560 242.193,200.401 242.028,201.226 241.586 C 202.657 240.820,202.246 228.844,200.733 227.220 C 199.552 225.952,122.557 225.922,121.410 227.189 M132.045 231.624 C 133.072 232.174,133.697 233.847,133.393 235.231 C 132.909 237.434,129.703 237.624,128.240 235.536 C 126.538 233.106,129.371 230.193,132.045 231.624 M141.018 232.182 C 143.092 234.255,141.442 237.562,138.626 236.976 C 136.127 236.456,135.297 234.076,136.981 232.258 C 138.217 230.924,139.732 230.896,141.018 232.182 M149.346 232.029 C 151.175 233.468,150.617 236.106,148.311 236.922 C 147.096 237.353,145.290 236.432,144.845 235.156 C 143.798 232.154,146.829 230.049,149.346 232.029 M157.818 232.182 C 159.366 233.730,159.018 236.106,157.149 236.758 C 154.991 237.510,153.200 236.242,153.200 233.961 C 153.200 231.329,155.918 230.282,157.818 232.182 M165.865 231.791 C 167.633 233.029,167.321 236.482,165.398 236.965 C 164.249 237.253,163.277 236.930,162.100 235.871 C 159.630 233.647,163.118 229.867,165.865 231.791 M174.546 232.029 C 177.125 234.058,174.812 237.860,171.666 236.763 C 169.593 236.040,169.073 233.885,170.581 232.258 C 171.760 230.986,173.121 230.908,174.546 232.029 M132.969 323.792 C 132.333 324.274,129.940 324.377,119.160 324.387 C 111.463 324.395,105.644 324.565,104.960 324.803 C 104.322 325.025,99.855 325.250,95.033 325.303 C 88.445 325.376,86.225 325.524,86.100 325.900 C 85.975 326.275,84.182 326.400,78.954 326.400 C 73.119 326.400,71.937 326.498,71.745 327.000 C 71.556 327.492,70.553 327.600,66.181 327.600 C 63.057 327.600,60.745 327.766,60.600 328.000 C 60.464 328.220,58.828 328.400,56.964 328.400 C 54.320 328.400,53.524 328.532,53.345 329.000 C 53.176 329.439,52.484 329.600,50.757 329.600 C 49.452 329.600,48.400 329.779,48.400 330.000 C 48.400 330.220,47.680 330.400,46.800 330.400 C 45.644 330.400,45.200 330.567,45.200 331.000 C 45.200 331.330,44.930 331.600,44.600 331.600 C 44.181 331.600,44.000 332.022,44.000 333.000 C 44.000 333.978,44.181 334.400,44.600 334.400 C 44.930 334.400,45.200 334.670,45.200 335.000 C 45.200 335.433,45.644 335.600,46.800 335.600 C 47.680 335.600,48.400 335.780,48.400 336.000 C 48.400 336.222,49.471 336.400,50.813 336.400 C 52.588 336.400,53.286 336.558,53.455 337.000 C 53.637 337.474,54.469 337.600,57.419 337.600 C 59.477 337.600,61.264 337.780,61.400 338.000 C 61.543 338.232,63.723 338.400,66.581 338.400 C 70.597 338.400,71.557 338.512,71.745 339.000 C 71.937 339.502,73.119 339.600,78.954 339.600 C 84.017 339.600,85.977 339.731,86.093 340.079 C 86.209 340.427,88.819 340.599,95.626 340.708 C 100.863 340.793,105.059 341.023,105.133 341.230 C 105.212 341.447,110.939 341.600,119.000 341.600 C 129.631 341.600,132.771 341.713,132.900 342.100 C 133.032 342.497,146.809 342.600,200.000 342.600 C 253.191 342.600,266.968 342.497,267.100 342.100 C 267.229 341.713,270.369 341.600,281.000 341.600 C 289.061 341.600,294.788 341.447,294.867 341.230 C 294.941 341.023,299.137 340.793,304.374 340.708 C 311.181 340.599,313.791 340.427,313.907 340.079 C 314.023 339.731,316.018 339.600,321.205 339.600 C 327.016 339.600,328.454 339.489,328.943 339.000 C 329.404 338.539,330.566 338.400,333.948 338.400 C 336.453 338.400,338.459 338.227,338.600 338.000 C 338.736 337.780,340.523 337.600,342.581 337.600 C 345.531 337.600,346.363 337.474,346.545 337.000 C 346.714 336.560,347.408 336.400,349.154 336.400 C 350.463 336.400,351.595 336.216,351.670 335.991 C 351.744 335.767,352.479 335.558,353.303 335.527 C 354.258 335.491,354.800 335.277,354.800 334.935 C 354.800 334.641,355.070 334.400,355.400 334.400 C 356.416 334.400,356.198 331.745,355.160 331.474 C 354.697 331.353,354.438 331.062,354.583 330.827 C 354.754 330.552,354.279 330.400,353.247 330.400 C 352.367 330.400,351.536 330.220,351.400 330.000 C 351.264 329.780,350.193 329.600,349.019 329.600 C 347.492 329.600,346.820 329.430,346.655 329.000 C 346.476 328.532,345.680 328.400,343.036 328.400 C 341.172 328.400,339.536 328.220,339.400 328.000 C 339.257 327.768,337.077 327.600,334.219 327.600 C 330.327 327.600,329.240 327.480,329.068 327.032 C 328.891 326.573,327.454 326.455,321.540 326.418 C 316.278 326.385,314.146 326.236,313.930 325.886 C 313.712 325.534,311.233 325.373,304.915 325.303 C 300.122 325.250,295.678 325.025,295.040 324.803 C 294.356 324.565,288.537 324.395,280.840 324.387 C 270.008 324.377,267.669 324.275,267.024 323.787 C 264.664 322.002,260.222 323.465,261.358 325.653 C 261.889 326.678,262.444 331.820,262.118 332.700 C 261.978 333.079,259.821 333.200,253.200 333.200 L 244.467 333.200 243.675 332.114 L 242.884 331.027 240.888 332.114 C 238.093 333.635,236.093 333.553,235.481 331.893 C 235.287 331.369,235.941 330.484,238.010 328.472 C 241.222 325.348,241.237 325.300,239.352 324.098 L 237.938 323.196 185.838 323.203 C 140.865 323.209,133.634 323.290,132.969 323.792 " stroke="none" fill="#e9ece5" fill-rule="evenodd"></path><path id="path1" d="M263.600 83.200 C 263.600 83.420,263.150 83.600,262.600 83.600 C 261.999 83.600,261.600 83.829,261.600 84.172 C 261.600 84.487,261.195 84.806,260.700 84.882 C 260.205 84.957,259.845 85.240,259.900 85.509 C 259.955 85.779,259.640 86.000,259.200 86.000 C 258.760 86.000,258.400 86.188,258.400 86.417 C 258.400 86.809,258.087 87.262,256.900 88.585 C 256.625 88.892,256.400 89.516,256.400 89.971 C 256.400 90.441,256.140 90.800,255.800 90.800 C 255.427 90.800,255.200 91.178,255.200 91.800 C 255.200 92.350,255.020 92.800,254.800 92.800 C 254.580 92.800,254.400 93.340,254.400 94.000 C 254.400 94.660,254.591 95.200,254.824 95.200 C 255.105 95.200,255.167 96.112,255.007 97.900 C 254.620 102.232,256.258 103.941,260.836 103.981 C 262.823 103.998,263.122 104.111,263.527 105.000 C 264.009 106.057,270.400 106.615,270.400 105.600 C 270.400 105.380,271.120 105.200,272.000 105.200 C 273.156 105.200,273.600 105.033,273.600 104.600 C 273.600 104.227,273.978 104.000,274.600 104.000 C 275.150 104.000,275.600 103.807,275.600 103.571 C 275.600 103.336,275.870 102.873,276.200 102.543 C 276.624 102.119,276.800 101.085,276.800 99.020 C 276.800 96.911,276.633 95.959,276.200 95.600 C 275.560 95.069,275.356 94.202,275.958 94.574 C 276.861 95.132,277.104 91.801,276.232 90.831 C 275.919 90.484,275.604 89.936,275.532 89.614 C 275.388 88.973,273.834 88.000,272.954 88.000 C 272.574 88.000,272.400 87.497,272.400 86.400 C 272.400 85.520,272.220 84.800,272.000 84.800 C 271.780 84.800,271.600 84.530,271.600 84.200 C 271.600 83.870,271.330 83.600,271.000 83.600 C 270.670 83.600,270.400 83.420,270.400 83.200 C 270.400 82.965,269.000 82.800,267.000 82.800 C 265.000 82.800,263.600 82.965,263.600 83.200 M245.200 96.400 C 245.200 96.620,244.682 96.800,244.049 96.800 C 243.416 96.800,242.674 97.070,242.400 97.400 C 242.126 97.730,241.577 98.000,241.180 98.000 C 240.783 98.000,240.104 98.450,239.671 99.000 C 239.239 99.550,238.686 100.000,238.442 100.000 C 238.199 100.000,238.000 100.270,238.000 100.600 C 238.000 100.930,237.820 101.200,237.600 101.200 C 237.380 101.200,237.200 101.650,237.200 102.200 C 237.200 102.822,236.973 103.200,236.600 103.200 C 236.227 103.200,236.000 103.578,236.000 104.200 C 236.000 104.750,235.820 105.200,235.600 105.200 C 235.380 105.200,235.200 105.833,235.200 106.608 C 235.200 107.899,235.280 107.995,236.173 107.771 C 237.008 107.561,237.265 107.759,237.981 109.163 C 238.657 110.489,239.029 110.800,239.933 110.800 C 242.617 110.800,243.369 113.116,241.526 115.704 C 240.115 117.685,241.623 122.427,244.135 123.909 C 246.262 125.164,254.018 125.493,254.810 124.363 C 255.135 123.900,255.805 123.364,256.300 123.171 C 256.821 122.967,257.200 122.479,257.200 122.010 C 257.200 121.557,257.464 121.200,257.800 121.200 C 258.173 121.200,258.400 120.822,258.400 120.200 C 258.400 119.650,258.580 119.200,258.800 119.200 C 259.020 119.200,259.200 118.300,259.200 117.200 C 259.200 115.689,259.347 115.200,259.800 115.200 C 260.130 115.200,260.400 114.930,260.400 114.600 C 260.400 114.270,260.577 114.000,260.792 114.000 C 261.008 114.000,261.298 113.550,261.436 113.000 C 261.574 112.450,261.847 112.000,262.043 112.000 C 262.240 112.000,262.400 111.389,262.400 110.643 C 262.400 109.805,262.630 109.197,263.000 109.055 C 264.380 108.526,263.559 107.923,261.700 108.102 C 254.424 108.800,249.600 105.295,249.600 99.311 L 249.600 96.000 247.400 96.000 C 246.190 96.000,245.200 96.180,245.200 96.400 M234.072 110.069 C 234.261 111.349,235.200 111.486,235.200 110.233 C 235.200 109.561,234.981 109.200,234.572 109.200 C 234.155 109.200,233.987 109.492,234.072 110.069 M261.029 146.406 C 260.479 148.742,260.582 152.200,261.200 152.200 C 261.662 152.200,261.827 151.580,261.918 149.497 C 262.046 146.576,261.464 144.554,261.029 146.406 M230.477 151.412 C 229.775 152.408,229.200 153.376,229.200 153.563 C 229.200 153.749,228.930 154.126,228.600 154.400 C 227.925 154.960,227.800 156.229,228.384 156.590 C 229.017 156.981,230.237 155.973,230.985 154.441 C 231.372 153.648,231.849 152.687,232.044 152.305 C 233.361 149.733,232.148 149.041,230.477 151.412 M232.711 173.493 C 233.651 173.578,235.091 173.577,235.911 173.491 C 236.730 173.405,235.960 173.336,234.200 173.337 C 232.440 173.339,231.770 173.409,232.711 173.493 M239.705 173.487 C 240.314 173.579,241.214 173.577,241.705 173.482 C 242.197 173.387,241.700 173.311,240.600 173.314 C 239.500 173.317,239.097 173.395,239.705 173.487 M231.700 176.834 C 230.893 177.139,230.800 177.445,230.800 179.787 C 230.800 181.262,230.626 182.400,230.400 182.400 C 230.169 182.400,230.000 183.667,230.000 185.400 C 230.000 187.245,229.837 188.400,229.576 188.400 C 229.343 188.400,229.264 188.580,229.400 188.800 C 229.536 189.020,229.457 189.200,229.224 189.200 C 228.961 189.200,228.800 190.414,228.800 192.400 C 228.800 194.267,228.633 195.600,228.400 195.600 C 228.169 195.600,228.000 196.852,228.000 198.557 C 228.000 200.817,227.858 201.569,227.400 201.745 C 226.932 201.924,226.800 202.723,226.800 205.387 C 226.800 207.396,226.635 208.800,226.400 208.800 C 226.163 208.800,226.000 210.252,226.000 212.357 C 226.000 215.150,225.871 215.964,225.400 216.145 C 224.925 216.327,224.800 217.168,224.800 220.187 C 224.800 222.462,224.639 224.000,224.400 224.000 C 224.160 224.000,224.000 225.586,224.000 227.957 C 224.000 231.106,223.877 231.961,223.400 232.145 C 222.911 232.332,222.800 233.301,222.800 237.387 C 222.800 240.462,222.645 242.400,222.400 242.400 C 222.160 242.400,222.000 243.992,222.000 246.376 C 222.000 248.596,222.177 250.462,222.400 250.600 C 222.620 250.736,222.800 252.012,222.800 253.436 C 222.800 255.368,222.952 256.084,223.400 256.255 C 223.820 256.417,224.000 257.072,224.000 258.443 C 224.000 259.519,224.180 260.400,224.400 260.400 C 224.620 260.400,224.800 261.396,224.800 262.613 C 224.800 264.210,224.967 264.889,225.400 265.055 C 225.831 265.221,226.000 265.894,226.000 267.443 C 226.000 268.629,226.180 269.600,226.400 269.600 C 226.620 269.600,226.800 270.320,226.800 271.200 C 226.800 272.080,226.991 272.800,227.224 272.800 C 227.457 272.800,227.536 272.980,227.400 273.200 C 227.264 273.420,227.343 273.600,227.576 273.600 C 227.811 273.600,228.000 274.393,228.000 275.376 C 228.000 276.353,228.180 277.264,228.400 277.400 C 228.620 277.536,228.800 278.245,228.800 278.975 C 228.800 279.705,229.070 280.526,229.400 280.800 C 229.766 281.104,230.000 281.980,230.000 283.049 C 230.000 284.012,230.157 284.800,230.348 284.800 C 230.539 284.800,230.792 285.649,230.909 286.687 C 231.026 287.725,231.319 288.640,231.561 288.720 C 231.802 288.801,232.000 289.557,232.000 290.400 C 232.000 291.243,232.198 291.999,232.439 292.080 C 232.681 292.160,232.974 293.075,233.091 294.113 C 233.208 295.151,233.461 296.000,233.652 296.000 C 233.843 296.000,234.000 296.630,234.000 297.400 C 234.000 298.378,234.181 298.800,234.600 298.800 C 235.053 298.800,235.200 299.289,235.200 300.800 C 235.200 301.900,235.380 302.800,235.600 302.800 C 235.820 302.800,236.000 303.520,236.000 304.400 C 236.000 305.556,236.167 306.000,236.600 306.000 C 237.046 306.000,237.200 306.469,237.200 307.824 C 237.200 308.937,237.356 309.551,237.600 309.400 C 237.820 309.264,238.000 309.258,238.000 309.386 C 238.000 309.515,237.550 309.791,237.000 310.000 C 235.866 310.431,235.679 311.622,236.600 312.543 C 236.930 312.873,237.200 313.660,237.200 314.291 C 237.200 316.553,240.094 317.337,241.353 315.416 C 241.755 314.801,242.637 314.276,243.699 314.018 C 244.635 313.791,245.903 313.436,246.518 313.230 C 247.133 313.025,248.258 312.957,249.018 313.080 L 250.400 313.305 250.400 315.679 C 250.400 316.984,250.217 318.395,249.993 318.813 C 249.554 319.633,244.815 322.000,243.612 322.000 C 243.091 322.000,242.668 322.601,242.140 324.092 C 241.590 325.648,240.714 326.853,238.723 328.792 C 234.823 332.593,235.695 334.017,240.419 331.558 C 242.749 330.345,244.000 330.252,244.000 331.291 C 244.000 332.507,245.488 332.731,253.539 332.726 L 261.600 332.720 261.594 331.060 C 261.591 330.147,261.346 328.590,261.051 327.600 L 260.514 325.800 257.462 325.683 C 254.016 325.551,253.862 325.423,253.394 322.300 C 253.237 321.255,252.950 320.400,252.755 320.400 C 251.905 320.400,252.443 318.509,253.419 318.064 C 254.665 317.496,260.657 317.446,261.000 318.000 C 261.136 318.220,261.957 318.400,262.824 318.400 L 264.400 318.400 264.400 315.424 C 264.400 313.787,264.220 312.336,264.000 312.200 C 263.764 312.054,263.600 309.670,263.600 306.400 C 263.600 303.130,263.764 300.746,264.000 300.600 C 264.254 300.443,264.400 295.263,264.400 286.376 C 264.400 277.325,264.541 272.400,264.800 272.400 C 265.020 272.400,265.200 272.209,265.200 271.976 C 265.200 271.743,264.975 271.667,264.700 271.806 C 264.425 271.945,264.515 271.801,264.900 271.486 C 265.876 270.686,265.964 257.621,265.000 256.657 C 264.505 256.162,264.400 254.590,264.400 247.652 C 264.400 242.480,264.246 239.152,264.000 239.000 C 263.744 238.842,263.600 232.855,263.600 222.353 C 263.600 211.521,263.736 206.037,264.000 206.200 C 264.263 206.362,264.400 202.937,264.400 196.224 C 264.400 187.703,264.306 186.000,263.837 186.000 C 263.499 186.000,262.956 185.003,262.475 183.500 C 260.602 177.645,260.565 177.607,257.976 178.857 C 254.465 180.554,248.475 179.920,245.724 177.560 C 244.386 176.413,234.204 175.886,231.700 176.834 M128.400 205.189 C 126.901 205.553,126.718 208.197,128.146 208.848 C 130.333 209.845,132.253 208.167,131.193 206.186 C 130.628 205.130,129.823 204.843,128.400 205.189 M135.862 205.931 C 135.003 206.881,135.027 207.264,136.016 208.325 C 137.428 209.840,140.000 209.114,140.000 207.200 C 140.000 205.367,137.160 204.497,135.862 205.931 M144.156 205.885 C 143.079 207.619,145.080 209.673,147.192 209.002 C 147.909 208.775,148.024 208.471,147.921 207.066 C 147.781 205.134,145.138 204.305,144.156 205.885 M152.667 205.467 C 152.058 206.075,152.410 208.377,153.174 208.786 C 155.457 210.008,157.542 208.334,156.398 206.197 C 155.875 205.219,153.399 204.735,152.667 205.467 M154.691 232.324 C 152.708 233.526,153.668 236.400,156.051 236.400 C 158.250 236.400,158.851 233.475,156.891 232.317 C 155.862 231.710,155.702 231.710,154.691 232.324 M129.062 232.731 C 127.709 234.227,128.769 236.400,130.851 236.400 C 132.161 236.400,132.800 235.700,132.800 234.264 C 132.800 232.230,130.404 231.248,129.062 232.731 M137.377 232.979 C 136.466 234.369,137.316 236.144,138.983 236.334 C 140.994 236.564,142.008 234.055,140.469 232.662 C 139.419 231.713,138.120 231.846,137.377 232.979 M145.862 232.731 C 144.994 233.691,145.022 234.915,145.931 235.738 C 148.159 237.754,151.261 234.924,149.074 232.870 C 147.944 231.808,146.745 231.756,145.862 232.731 M162.533 233.046 C 161.919 233.983,161.909 234.202,162.436 235.146 C 163.592 237.215,166.400 236.612,166.400 234.295 C 166.400 232.031,163.757 231.177,162.533 233.046 M171.280 232.480 C 169.942 233.818,170.986 236.400,172.866 236.400 C 174.695 236.400,175.485 233.944,174.069 232.662 C 173.209 231.884,171.957 231.803,171.280 232.480 M244.000 236.751 C 244.000 237.164,244.270 237.726,244.600 238.000 C 245.046 238.370,245.200 239.358,245.200 241.849 C 245.200 243.692,245.353 245.200,245.540 245.200 C 245.726 245.200,245.995 246.954,246.135 249.099 C 246.276 251.243,246.573 253.058,246.796 253.132 C 247.031 253.210,247.200 254.901,247.200 257.184 C 247.200 260.179,247.341 261.219,247.800 261.600 C 248.276 261.995,248.400 263.158,248.400 267.249 C 248.400 270.416,248.554 272.400,248.800 272.400 C 249.049 272.400,249.200 274.724,249.200 278.571 C 249.200 283.524,249.319 284.861,249.800 285.343 C 250.286 285.829,250.400 287.232,250.400 292.748 C 250.400 296.853,250.559 299.651,250.800 299.800 C 251.033 299.944,251.200 302.204,251.200 305.224 C 251.200 308.408,251.046 310.400,250.800 310.400 C 250.580 310.400,250.400 309.680,250.400 308.800 C 250.400 307.644,250.233 307.200,249.800 307.200 C 249.470 307.200,249.200 306.876,249.200 306.480 C 249.200 306.084,249.035 305.589,248.834 305.380 C 248.632 305.171,248.407 303.125,248.334 300.833 C 248.241 297.955,248.045 296.615,247.700 296.500 C 247.343 296.381,247.200 295.145,247.200 292.167 C 247.200 288.730,247.095 288.000,246.600 288.000 C 246.107 288.000,246.000 287.292,246.000 284.024 C 246.000 281.804,245.823 279.938,245.600 279.800 C 245.380 279.664,245.200 278.033,245.200 276.176 C 245.200 273.442,245.086 272.800,244.600 272.800 C 244.117 272.800,244.000 272.178,244.000 269.600 C 244.000 267.733,243.833 266.400,243.600 266.400 C 243.371 266.400,243.200 265.196,243.200 263.587 C 243.200 261.456,243.055 260.719,242.600 260.545 C 242.162 260.376,242.000 259.686,242.000 257.981 C 242.000 256.697,241.820 255.536,241.600 255.400 C 241.380 255.264,241.200 254.348,241.200 253.364 C 241.200 252.143,241.010 251.502,240.600 251.345 C 240.155 251.174,240.000 250.466,240.000 248.600 C 240.000 246.734,240.155 246.026,240.600 245.855 C 240.947 245.722,241.200 245.124,241.200 244.436 C 241.200 243.782,241.380 243.136,241.600 243.000 C 241.820 242.864,242.000 242.038,242.000 241.164 C 242.000 240.120,242.206 239.496,242.600 239.345 C 242.991 239.195,243.200 238.572,243.200 237.557 C 243.200 236.701,243.380 236.000,243.600 236.000 C 243.820 236.000,244.000 236.338,244.000 236.751 M248.800 328.400 C 248.800 328.620,248.429 328.800,247.976 328.800 C 247.523 328.800,247.264 328.620,247.400 328.400 C 247.536 328.180,247.907 328.000,248.224 328.000 C 248.541 328.000,248.800 328.180,248.800 328.400 " stroke="none" fill="#24343b" fill-rule="evenodd"></path><path id="path2" d="M249.353 95.276 C 249.191 95.538,249.270 95.823,249.529 95.910 C 249.834 96.011,250.000 97.117,250.000 99.047 C 250.000 101.194,250.194 102.332,250.695 103.114 C 251.823 104.877,251.894 104.930,255.794 106.919 C 256.231 107.142,257.986 107.376,259.695 107.439 C 261.404 107.502,263.009 107.682,263.263 107.839 C 263.549 108.016,263.615 107.947,263.436 107.659 C 263.276 107.399,263.425 107.089,263.775 106.954 C 265.114 106.440,261.989 104.793,259.684 104.798 C 256.430 104.805,254.296 102.264,254.408 98.514 C 254.452 97.021,254.469 95.575,254.444 95.300 C 254.385 94.634,249.763 94.612,249.353 95.276 M168.069 97.400 L 168.164 98.800 171.082 98.800 L 174.000 98.800 174.000 97.400 L 174.000 96.000 170.987 96.000 L 167.975 96.000 168.069 97.400 M176.363 96.100 C 176.343 96.155,176.243 96.785,176.141 97.500 L 175.956 98.800 182.578 98.800 L 189.200 98.800 189.200 97.400 L 189.200 96.000 182.800 96.000 C 179.280 96.000,176.384 96.045,176.363 96.100 M103.306 99.500 C 103.201 99.775,102.684 100.000,102.157 100.000 C 101.573 100.000,101.200 100.234,101.200 100.600 C 101.200 100.930,100.930 101.200,100.600 101.200 C 99.908 101.200,99.787 101.862,100.439 102.080 C 100.727 102.176,100.909 104.352,100.969 108.413 C 101.074 115.587,101.803 129.827,102.392 136.223 C 102.617 138.656,102.800 143.212,102.800 146.346 C 102.800 149.481,102.978 153.251,103.196 154.723 C 103.583 157.338,104.260 169.957,104.810 184.800 C 105.205 195.454,105.952 209.129,106.407 214.018 C 106.623 216.339,106.800 220.781,106.800 223.889 C 106.800 226.998,106.981 230.860,107.203 232.471 C 107.583 235.235,108.038 244.134,108.784 263.400 C 109.282 276.265,110.195 280.000,112.843 280.000 C 113.233 280.000,113.664 280.180,113.800 280.400 C 113.963 280.663,131.196 280.800,164.200 280.800 C 197.204 280.800,214.437 280.937,214.600 281.200 C 215.178 282.135,217.600 281.224,217.600 280.071 C 217.600 279.859,217.870 279.582,218.200 279.455 C 218.714 279.258,218.800 277.588,218.800 267.813 C 218.800 257.935,218.719 256.400,218.200 256.400 C 217.682 256.400,217.600 255.009,217.600 246.280 C 217.600 240.291,217.442 236.002,217.213 235.773 C 216.988 235.548,216.809 231.500,216.786 226.119 C 216.753 218.602,216.637 216.763,216.173 216.377 C 215.705 215.989,215.600 214.162,215.600 206.431 C 215.600 200.961,215.439 196.799,215.219 196.579 C 215.003 196.363,214.812 192.183,214.778 186.926 C 214.731 179.390,214.615 177.614,214.160 177.440 C 213.744 177.281,213.600 176.396,213.600 174.013 L 213.600 170.800 211.443 170.800 C 209.027 170.800,208.840 171.003,208.737 173.733 L 208.674 175.400 208.437 173.400 L 208.200 171.400 205.800 171.143 C 204.480 171.002,201.021 170.867,198.114 170.843 C 193.163 170.803,190.734 170.334,189.600 169.200 C 189.490 169.090,189.040 168.802,188.600 168.560 C 187.570 167.992,187.396 166.461,188.157 164.641 C 188.969 162.698,189.863 162.718,194.600 164.785 C 196.940 165.806,198.058 165.903,202.841 165.498 C 208.800 164.993,208.151 165.530,208.434 160.867 L 208.668 157.000 208.734 160.476 C 208.817 164.867,209.917 165.574,212.556 162.935 C 213.611 161.880,214.144 156.816,213.135 157.440 C 212.951 157.554,212.788 154.442,212.774 150.524 C 212.759 146.606,212.741 142.331,212.734 141.025 C 212.726 139.714,212.475 138.276,212.174 137.816 C 211.755 137.176,211.618 134.799,211.585 127.598 C 211.562 122.436,211.379 118.015,211.178 117.773 C 210.977 117.531,210.797 114.323,210.779 110.643 C 210.752 105.229,210.637 103.912,210.173 103.734 C 209.858 103.613,209.600 103.054,209.600 102.491 C 209.600 101.927,209.489 101.578,209.352 101.714 C 209.049 102.018,208.000 101.021,208.000 100.429 C 208.000 100.193,207.655 100.000,207.233 100.000 C 206.812 100.000,206.407 99.820,206.333 99.600 C 206.119 98.956,103.553 98.856,103.306 99.500 M204.200 104.000 C 204.652 104.194,183.219 104.356,154.900 104.372 C 121.748 104.390,104.800 104.265,104.800 104.000 C 104.800 103.498,203.032 103.498,204.200 104.000 M104.394 108.100 C 104.390 110.378,104.268 111.214,104.000 110.800 C 103.484 110.002,103.484 104.800,104.000 104.800 C 104.235 104.800,104.397 106.163,104.394 108.100 M206.000 110.824 C 206.000 113.741,205.844 115.600,205.600 115.600 C 205.355 115.600,205.200 113.659,205.200 110.576 C 205.200 107.329,205.341 105.640,205.600 105.800 C 205.831 105.942,206.000 108.071,206.000 110.824 M105.099 126.500 C 105.028 128.975,104.971 126.950,104.971 122.000 C 104.971 117.050,105.028 115.025,105.099 117.500 C 105.169 119.975,105.169 124.025,105.099 126.500 M160.445 115.383 C 185.758 120.227,195.301 150.996,176.586 167.428 C 175.225 168.622,173.993 169.600,173.848 169.600 C 173.703 169.600,172.869 170.051,171.995 170.603 C 160.162 178.073,141.404 172.991,132.452 159.889 C 117.996 138.731,135.664 110.641,160.445 115.383 M206.699 131.477 C 206.629 134.075,206.572 132.060,206.572 127.000 C 206.571 121.940,206.628 119.815,206.698 122.277 C 206.768 124.740,206.769 128.880,206.699 131.477 M152.200 126.932 C 147.685 128.611,144.986 135.458,147.159 139.719 C 153.140 151.450,170.391 145.508,165.793 133.301 C 164.935 131.021,161.399 127.223,160.124 127.209 C 159.642 127.204,159.136 127.020,159.000 126.800 C 158.672 126.270,153.722 126.365,152.200 126.932 M233.200 132.992 C 233.200 133.318,233.650 133.698,234.200 133.836 C 234.750 133.974,235.200 134.247,235.200 134.443 C 235.200 134.640,235.470 134.800,235.800 134.800 C 236.596 134.800,236.568 134.150,235.758 133.839 C 235.392 133.699,235.215 133.337,235.346 132.997 C 235.517 132.550,235.276 132.400,234.387 132.400 C 233.605 132.400,233.200 132.602,233.200 132.992 M257.124 132.609 C 257.009 132.725,257.007 133.305,257.121 133.898 C 257.307 134.870,257.358 134.899,257.635 134.189 C 258.194 132.759,257.896 131.837,257.124 132.609 M106.299 146.078 C 106.229 148.565,106.171 146.640,106.170 141.800 C 106.170 136.960,106.228 134.925,106.298 137.278 C 106.369 139.631,106.369 143.591,106.299 146.078 M208.000 146.824 C 208.000 152.337,207.862 155.162,207.600 155.000 C 207.354 154.848,207.200 151.596,207.200 146.576 C 207.200 141.392,207.346 138.400,207.600 138.400 C 207.854 138.400,208.000 141.475,208.000 146.824 M257.301 142.600 C 257.305 143.480,257.387 143.793,257.483 143.295 C 257.579 142.798,257.575 142.078,257.475 141.695 C 257.375 141.313,257.296 141.720,257.301 142.600 M246.800 147.307 C 246.800 148.299,252.014 148.949,252.583 148.028 C 252.929 147.468,252.454 147.308,249.500 146.994 C 247.239 146.754,246.800 146.804,246.800 147.307 M149.000 151.012 C 148.120 151.329,147.083 151.591,146.695 151.594 C 146.307 151.597,145.677 151.754,145.295 151.941 C 144.913 152.129,143.880 152.601,143.000 152.990 C 142.120 153.379,140.770 154.047,140.000 154.474 C 139.230 154.902,138.285 155.351,137.900 155.472 C 136.137 156.029,142.131 162.766,146.200 164.800 C 147.300 165.350,148.260 165.935,148.333 166.100 C 148.407 166.265,148.932 166.400,149.502 166.400 C 150.071 166.400,150.855 166.688,151.245 167.040 C 151.822 167.563,153.009 167.684,157.691 167.700 C 163.779 167.720,163.590 167.761,168.800 165.267 C 170.974 164.227,176.400 159.432,176.400 158.552 C 176.400 158.302,176.670 157.874,177.000 157.600 C 177.813 156.925,177.758 155.743,176.900 155.472 C 176.515 155.351,175.570 154.897,174.800 154.464 C 172.736 153.302,170.567 152.400,169.840 152.400 C 169.488 152.400,169.200 152.220,169.200 152.000 C 169.200 151.780,168.705 151.597,168.100 151.594 C 167.495 151.591,166.280 151.329,165.400 151.012 C 164.251 150.598,161.940 150.435,157.200 150.435 C 152.460 150.435,150.149 150.598,149.000 151.012 M107.099 165.678 C 107.029 168.165,106.971 166.240,106.970 161.400 C 106.970 156.560,107.028 154.525,107.098 156.878 C 107.169 159.231,107.169 163.191,107.099 165.678 M108.299 185.700 C 108.228 188.175,108.171 186.150,108.171 181.200 C 108.171 176.250,108.228 174.225,108.299 176.700 C 108.369 179.175,108.369 183.225,108.299 185.700 M237.606 174.500 C 237.609 174.995,237.787 175.670,238.000 176.000 C 238.288 176.446,238.389 176.216,238.394 175.100 C 238.397 174.275,238.220 173.600,238.000 173.600 C 237.780 173.600,237.603 174.005,237.606 174.500 M209.994 186.100 C 209.990 191.994,209.857 194.797,209.600 194.400 C 209.383 194.064,209.210 190.262,209.206 185.767 C 209.201 178.698,209.316 177.200,209.867 177.200 C 209.940 177.200,209.997 181.205,209.994 186.100 M176.674 186.470 C 177.833 187.559,177.991 190.905,176.938 192.069 C 176.013 193.091,143.145 193.186,141.800 192.170 C 140.769 191.391,140.615 186.615,141.600 185.992 C 143.051 185.074,175.662 185.519,176.674 186.470 M109.594 201.076 C 109.598 205.769,109.445 208.849,109.200 209.000 C 108.938 209.162,108.802 206.306,108.806 200.724 C 108.810 195.073,108.943 192.402,109.200 192.800 C 109.415 193.133,109.590 196.811,109.594 201.076 M211.132 205.800 C 211.138 209.980,210.989 213.760,210.800 214.200 C 210.596 214.675,210.461 211.184,210.468 205.600 C 210.475 200.309,210.620 196.637,210.800 197.200 C 210.976 197.750,211.126 201.620,211.132 205.800 M200.360 199.944 C 201.517 201.569,201.688 213.597,200.572 214.831 C 199.513 216.001,121.323 216.041,120.265 214.872 C 118.752 213.200,117.809 201.557,119.048 199.856 L 119.800 198.825 159.673 198.813 L 199.546 198.800 200.360 199.944 M110.299 224.900 C 110.228 227.375,110.171 225.350,110.171 220.400 C 110.171 215.450,110.228 213.425,110.299 215.900 C 110.369 218.375,110.369 222.425,110.299 224.900 M211.994 225.500 C 211.990 231.523,211.857 234.397,211.600 234.000 C 211.382 233.663,211.210 229.791,211.206 225.167 C 211.201 217.921,211.315 216.400,211.867 216.400 C 211.940 216.400,211.997 220.495,211.994 225.500 M201.573 226.765 C 202.111 227.477,202.368 228.782,202.560 231.765 C 202.702 233.984,202.924 236.675,203.053 237.744 C 203.295 239.748,202.792 241.319,201.600 242.287 C 201.138 242.663,191.990 242.777,161.736 242.787 L 122.471 242.800 121.495 241.640 C 120.434 240.379,119.626 229.436,120.437 227.304 C 121.063 225.656,121.467 225.640,161.723 225.721 L 200.846 225.800 201.573 226.765 M111.594 240.476 C 111.598 245.303,111.445 248.449,111.200 248.600 C 110.938 248.762,110.802 245.839,110.806 240.124 C 110.810 234.343,110.943 231.602,111.200 232.000 C 111.416 232.335,111.590 236.082,111.594 240.476 M213.172 245.276 C 213.189 250.394,213.047 253.647,212.800 253.800 C 212.537 253.962,212.410 250.844,212.428 244.724 C 212.445 239.144,212.594 235.721,212.800 236.200 C 212.989 236.640,213.156 240.724,213.172 245.276 M112.299 264.500 C 112.228 266.975,112.171 264.950,112.171 260.000 C 112.171 255.050,112.228 253.025,112.299 255.500 C 112.369 257.975,112.369 262.025,112.299 264.500 M188.221 255.515 C 190.236 256.353,190.781 257.775,190.897 262.494 C 191.074 269.667,193.000 269.200,163.200 269.200 C 133.394 269.200,135.156 269.660,134.865 261.801 C 134.688 257.036,135.338 255.757,138.223 255.188 C 141.028 254.635,186.823 254.935,188.221 255.515 M213.972 264.900 C 213.955 270.466,213.806 273.879,213.600 273.400 C 213.102 272.242,213.102 255.600,213.600 255.600 C 213.856 255.600,213.990 258.948,213.972 264.900 M113.600 274.024 C 113.600 276.220,113.668 276.400,114.500 276.406 C 115.214 276.411,115.278 276.490,114.809 276.786 C 113.660 277.513,112.800 276.112,112.800 273.514 C 112.800 272.042,112.951 271.246,113.200 271.400 C 113.420 271.536,113.600 272.717,113.600 274.024 M214.400 276.376 C 214.400 276.917,213.671 277.291,213.193 276.996 C 212.970 276.858,212.891 276.577,213.017 276.372 C 213.317 275.887,214.400 275.890,214.400 276.376 M239.467 320.667 C 239.320 320.813,239.200 321.248,239.200 321.633 C 239.200 322.018,238.975 322.414,238.700 322.512 C 237.936 322.785,238.549 323.210,240.062 323.455 C 241.549 323.696,242.773 322.348,242.266 321.027 C 242.026 320.401,239.993 320.140,239.467 320.667 " stroke="none" fill="#800080" fill-rule="evenodd"></path><path id="path3" d="M235.383 132.827 C 235.205 133.116,235.353 133.523,235.739 133.805 C 236.103 134.071,236.400 134.403,236.400 134.544 C 236.400 135.017,235.269 134.806,235.100 134.301 C 234.881 133.643,228.000 133.312,228.000 133.959 C 228.000 134.202,227.691 134.400,227.313 134.400 C 226.538 134.400,224.800 136.241,224.800 137.062 C 224.800 137.358,224.620 137.600,224.400 137.600 C 224.180 137.600,224.000 137.870,224.000 138.200 C 224.000 138.530,223.730 138.800,223.400 138.800 C 223.070 138.800,222.800 139.055,222.800 139.368 C 222.800 140.081,221.502 142.394,221.100 142.397 C 220.935 142.399,220.800 143.390,220.800 144.600 C 220.800 146.757,220.822 146.800,221.951 146.800 C 223.586 146.800,227.826 152.971,227.457 154.815 C 227.203 156.087,227.741 156.459,228.160 155.300 C 228.676 153.873,231.594 149.600,232.053 149.600 C 232.500 149.600,232.502 151.403,232.057 152.305 C 230.269 155.927,229.437 156.932,228.500 156.601 C 227.908 156.393,227.809 158.048,228.379 158.620 C 228.587 158.829,228.806 160.422,228.867 162.160 C 228.933 164.055,229.181 165.524,229.488 165.831 C 229.808 166.151,230.000 167.413,230.000 169.200 C 230.000 173.211,229.997 173.209,236.680 173.259 C 239.716 173.281,242.540 173.477,242.955 173.693 C 243.636 174.048,243.681 173.975,243.412 172.943 C 242.746 170.381,242.719 163.735,243.365 161.214 C 243.714 159.851,244.000 158.336,244.000 157.848 C 244.000 157.359,244.223 156.737,244.495 156.465 C 244.805 156.155,244.989 154.782,244.989 152.785 C 244.989 149.530,245.086 149.246,245.913 150.073 C 246.174 150.334,246.469 150.465,246.569 150.364 C 246.991 149.942,246.904 145.144,246.466 144.706 C 245.819 144.059,245.883 143.200,246.577 143.200 C 246.895 143.200,247.418 142.824,247.739 142.365 C 248.218 141.682,248.471 141.610,249.136 141.965 C 249.582 142.204,250.286 142.400,250.699 142.400 C 251.721 142.400,253.725 144.515,253.200 145.040 C 252.267 145.973,252.410 149.487,253.429 150.673 C 253.963 151.293,254.399 151.947,254.400 152.127 C 254.400 152.306,254.831 153.026,255.357 153.727 C 255.884 154.427,256.653 155.630,257.067 156.400 C 259.333 160.615,260.400 161.129,260.400 158.005 C 260.400 155.875,261.237 154.400,262.446 154.400 C 263.174 154.400,263.596 153.626,263.608 152.267 C 263.619 150.962,268.233 146.000,269.435 146.000 C 270.457 146.000,270.880 143.851,270.029 142.980 C 269.825 142.771,269.581 141.970,269.487 141.200 C 269.392 140.428,269.110 139.845,268.858 139.900 C 268.606 139.955,268.400 139.561,268.400 139.024 C 268.400 138.487,268.220 137.936,268.000 137.800 C 267.780 137.664,267.600 137.203,267.600 136.776 C 267.600 136.349,267.330 136.000,267.000 136.000 C 266.670 136.000,266.400 135.705,266.400 135.344 C 266.400 134.255,265.119 133.626,262.871 133.613 C 261.527 133.605,260.522 133.379,260.143 133.000 C 259.138 131.995,258.155 132.277,257.699 133.700 C 257.308 134.919,256.904 134.134,257.165 132.662 C 257.198 132.476,256.185 132.448,254.913 132.599 C 251.964 132.949,241.357 132.950,238.144 132.600 C 236.381 132.409,235.602 132.473,235.383 132.827 M257.483 143.295 C 257.387 143.793,257.305 143.480,257.301 142.600 C 257.296 141.720,257.375 141.313,257.475 141.695 C 257.575 142.078,257.579 142.798,257.483 143.295 M261.918 149.497 C 261.827 151.580,261.662 152.200,261.200 152.200 C 260.582 152.200,260.479 148.742,261.029 146.406 C 261.464 144.554,262.046 146.576,261.918 149.497 M188.813 163.784 C 188.098 164.645,187.809 167.488,188.368 168.162 C 188.903 168.806,192.128 170.400,192.896 170.400 C 193.173 170.400,192.251 169.856,190.847 169.191 L 188.294 167.984 188.547 166.132 C 188.687 165.114,189.003 164.038,189.250 163.740 C 189.496 163.443,189.608 163.200,189.498 163.200 C 189.388 163.200,189.080 163.463,188.813 163.784 M190.600 164.000 C 191.796 164.514,192.795 164.514,192.000 164.000 C 191.670 163.787,191.040 163.622,190.600 163.634 L 189.800 163.656 190.600 164.000 M194.600 165.391 C 196.671 166.388,201.333 166.696,204.200 166.024 C 204.871 165.867,203.373 165.756,200.800 165.772 C 197.164 165.794,195.915 165.653,194.839 165.100 C 194.090 164.715,193.280 164.406,193.039 164.414 C 192.797 164.422,193.500 164.862,194.600 165.391 M209.522 164.611 C 209.406 164.728,208.521 164.978,207.555 165.168 C 206.193 165.435,206.069 165.515,207.000 165.526 C 208.244 165.540,211.488 164.484,210.367 164.430 C 210.018 164.414,209.638 164.495,209.522 164.611 M210.000 170.404 C 208.878 170.643,209.096 170.692,211.097 170.651 C 212.470 170.623,213.595 170.465,213.597 170.300 C 213.601 169.942,211.941 169.990,210.000 170.404 M197.321 170.698 C 199.477 170.771,202.897 170.770,204.921 170.698 C 206.944 170.625,205.180 170.566,201.000 170.567 C 196.820 170.567,195.164 170.626,197.321 170.698 M245.401 177.207 C 247.179 179.073,248.921 179.654,252.800 179.675 C 256.081 179.693,260.398 178.458,260.399 177.500 C 260.400 176.978,258.854 177.176,258.520 177.742 C 257.427 179.592,248.947 179.328,246.710 177.375 C 245.033 175.910,244.043 175.783,245.401 177.207 M128.416 204.782 C 127.993 205.049,128.194 205.141,129.140 205.114 C 129.998 205.090,130.268 204.963,129.924 204.745 C 129.263 204.326,129.132 204.329,128.416 204.782 M136.300 205.029 C 135.695 205.357,135.200 205.828,135.200 206.075 C 135.200 206.329,135.517 206.237,135.931 205.862 C 136.855 205.026,138.552 205.009,139.371 205.829 C 139.717 206.174,140.000 206.269,140.000 206.039 C 140.000 205.698,137.952 204.358,137.520 204.416 C 137.454 204.425,136.905 204.701,136.300 205.029 M144.956 204.792 C 144.491 204.980,143.996 205.463,143.855 205.867 C 143.613 206.558,143.629 206.560,144.143 205.900 C 144.469 205.481,145.233 205.198,146.044 205.194 C 147.067 205.189,147.253 205.092,146.800 204.800 C 146.098 204.346,146.059 204.346,144.956 204.792 M153.400 204.800 C 153.254 205.036,153.695 205.197,154.476 205.194 C 155.478 205.189,155.654 205.093,155.200 204.800 C 154.422 204.297,153.711 204.297,153.400 204.800 M126.956 205.771 C 126.835 206.085,126.804 206.760,126.886 207.271 C 126.995 207.954,127.088 207.804,127.237 206.700 C 127.447 205.147,127.336 204.781,126.956 205.771 M130.800 205.444 C 130.800 205.662,131.003 206.043,131.251 206.291 C 132.711 207.751,130.210 209.758,128.071 208.844 C 127.073 208.418,127.053 208.429,127.776 208.993 C 130.081 210.793,133.125 208.121,131.387 205.824 C 131.064 205.396,130.800 205.225,130.800 205.444 M156.000 205.329 C 156.000 205.484,156.215 205.955,156.478 206.376 C 156.849 206.970,156.847 207.393,156.471 208.270 C 156.024 209.313,156.034 209.340,156.593 208.624 C 156.927 208.196,157.194 207.566,157.187 207.224 C 157.175 206.625,156.000 204.750,156.000 205.329 M148.064 207.292 C 147.962 209.670,144.895 209.968,144.059 207.682 C 143.806 206.989,143.652 206.852,143.632 207.300 C 143.587 208.279,145.019 209.600,146.124 209.600 C 147.703 209.600,148.483 208.732,148.295 207.182 L 148.128 205.800 148.064 207.292 M135.282 208.000 C 135.801 209.707,139.395 210.022,139.932 208.407 C 140.080 207.960,139.958 207.985,139.436 208.507 C 138.480 209.463,136.999 209.374,135.965 208.300 C 135.450 207.764,135.173 207.643,135.282 208.000 M152.976 208.970 C 153.404 209.317,154.214 209.582,154.776 209.559 C 155.718 209.521,155.700 209.494,154.565 209.223 C 153.886 209.061,153.076 208.796,152.765 208.634 C 152.454 208.473,152.549 208.624,152.976 208.970 M128.870 232.526 C 127.754 233.713,127.765 234.877,128.900 235.838 C 129.799 236.599,129.799 236.599,129.100 235.769 C 128.197 234.696,128.209 233.497,129.131 232.662 C 129.944 231.927,131.418 231.782,131.800 232.400 C 131.936 232.620,132.251 232.800,132.500 232.800 C 132.749 232.800,132.604 232.536,132.176 232.213 C 131.047 231.358,129.861 231.471,128.870 232.526 M137.760 231.906 C 136.422 232.799,136.293 235.392,137.548 236.168 C 137.767 236.303,137.671 235.864,137.336 235.192 C 136.169 232.852,138.559 231.009,140.569 232.700 C 141.399 233.399,141.399 233.399,140.638 232.500 C 139.881 231.606,138.604 231.343,137.760 231.906 M145.762 232.500 C 145.001 233.399,145.001 233.399,145.831 232.700 C 146.949 231.759,147.942 231.819,149.174 232.900 L 150.200 233.800 149.230 232.700 C 148.054 231.366,146.784 231.292,145.762 232.500 M156.900 232.303 C 158.110 233.054,158.421 234.968,157.500 236.001 C 157.075 236.478,157.104 236.482,157.700 236.032 C 159.200 234.897,157.998 231.547,156.114 231.611 C 155.941 231.616,156.295 231.928,156.900 232.303 M162.470 232.526 C 161.388 233.677,161.373 234.445,162.406 235.656 L 163.212 236.600 162.527 235.350 C 161.425 233.336,164.211 230.476,165.400 232.400 C 165.536 232.620,165.851 232.800,166.100 232.800 C 166.349 232.800,166.204 232.536,165.776 232.213 C 164.647 231.358,163.461 231.471,162.470 232.526 M171.012 232.387 C 170.165 233.323,170.080 235.084,170.850 235.739 C 171.153 235.995,171.265 236.033,171.100 235.823 C 170.630 235.223,170.749 233.011,171.280 232.480 C 173.058 230.702,175.546 233.309,174.378 235.726 C 173.970 236.570,173.977 236.574,174.578 235.824 C 176.466 233.467,173.031 230.156,171.012 232.387 M140.928 235.100 C 140.514 236.428,140.525 236.511,141.030 235.824 C 141.508 235.173,141.839 233.600,141.498 233.600 C 141.442 233.600,141.185 234.275,140.928 235.100 M241.200 324.466 C 241.200 325.409,240.007 327.389,239.014 328.094 C 238.772 328.266,238.761 328.390,238.987 328.394 C 240.130 328.412,242.345 324.585,241.615 323.855 C 241.328 323.568,241.200 323.758,241.200 324.466 M260.896 327.218 C 261.121 328.104,261.388 328.745,261.490 328.643 C 261.757 328.376,261.200 326.047,260.813 325.808 C 260.633 325.697,260.671 326.331,260.896 327.218 M247.400 328.400 C 247.264 328.620,247.523 328.800,247.976 328.800 C 248.429 328.800,248.800 328.620,248.800 328.400 C 248.800 328.180,248.541 328.000,248.224 328.000 C 247.907 328.000,247.536 328.180,247.400 328.400 M236.877 330.121 C 235.686 331.349,235.640 331.497,236.220 332.221 C 236.825 332.977,236.832 332.974,236.428 332.137 C 236.071 331.397,236.212 331.096,237.419 330.037 C 238.194 329.356,238.677 328.800,238.492 328.800 C 238.308 328.800,237.581 329.394,236.877 330.121 M261.701 331.000 C 261.705 331.880,261.787 332.193,261.883 331.695 C 261.979 331.198,261.975 330.478,261.875 330.095 C 261.775 329.713,261.696 330.120,261.701 331.000 M241.289 331.059 C 240.568 331.418,240.050 331.784,240.139 331.873 C 240.228 331.962,240.964 331.718,241.774 331.332 C 243.055 330.721,243.300 330.706,243.654 331.215 C 244.008 331.724,244.040 331.722,243.897 331.200 C 243.666 330.351,242.808 330.304,241.289 331.059 M253.105 332.683 C 253.602 332.779,254.322 332.775,254.705 332.675 C 255.087 332.575,254.680 332.496,253.800 332.501 C 252.920 332.505,252.607 332.587,253.105 332.683 " stroke="none" fill="#800080" fill-rule="evenodd"></path><path id="path4" d="M94.900 103.476 C 95.285 103.576,95.915 103.576,96.300 103.476 C 96.685 103.375,96.370 103.293,95.600 103.293 C 94.830 103.293,94.515 103.375,94.900 103.476 M92.000 104.733 C 92.000 104.990,91.730 105.200,91.400 105.200 C 91.070 105.200,90.800 105.477,90.800 105.816 C 90.800 106.310,90.972 106.271,91.671 105.620 C 92.150 105.174,92.420 104.687,92.271 104.538 C 92.122 104.389,92.000 104.477,92.000 104.733 M99.693 106.000 C 99.693 106.770,99.775 107.085,99.876 106.700 C 99.976 106.315,99.976 105.685,99.876 105.300 C 99.775 104.915,99.693 105.230,99.693 106.000 M90.800 108.200 C 90.800 108.530,90.620 108.800,90.400 108.800 C 90.180 108.800,90.000 109.081,90.000 109.424 C 90.000 109.767,90.169 109.942,90.377 109.814 C 90.584 109.686,90.822 110.351,90.907 111.291 C 91.018 112.533,91.079 112.263,91.130 110.300 C 91.169 108.815,91.110 107.600,91.000 107.600 C 90.890 107.600,90.800 107.870,90.800 108.200 M100.137 113.000 C 100.139 114.760,100.209 115.430,100.293 114.489 C 100.378 113.549,100.377 112.109,100.291 111.289 C 100.205 110.470,100.136 111.240,100.137 113.000 M100.440 124.033 C 100.462 125.005,100.625 126.250,100.802 126.800 C 100.995 127.400,101.037 126.760,100.906 125.200 C 100.651 122.162,100.382 121.489,100.440 124.033 M90.857 127.913 C 90.921 129.468,91.126 130.646,91.314 130.530 C 91.501 130.414,91.542 130.022,91.404 129.660 C 91.233 129.211,91.284 129.130,91.562 129.406 C 91.787 129.629,92.040 131.699,92.125 134.006 C 92.210 136.312,92.245 135.560,92.202 132.334 C 92.138 127.374,92.019 126.362,91.434 125.777 C 90.778 125.121,90.748 125.232,90.857 127.913 M101.324 140.600 C 101.326 141.920,101.401 142.412,101.490 141.693 C 101.579 140.974,101.577 139.894,101.486 139.293 C 101.395 138.692,101.322 139.280,101.324 140.600 M132.931 143.000 C 132.933 144.540,133.005 145.121,133.092 144.291 C 133.179 143.461,133.177 142.201,133.089 141.491 C 133.000 140.781,132.929 141.460,132.931 143.000 M101.693 145.600 C 101.693 146.370,101.775 146.685,101.876 146.300 C 101.976 145.915,101.976 145.285,101.876 144.900 C 101.775 144.515,101.693 144.830,101.693 145.600 M92.000 147.151 C 92.000 148.278,92.167 149.200,92.372 149.200 C 92.577 149.200,92.822 149.605,92.918 150.100 C 93.013 150.595,93.116 149.897,93.146 148.549 C 93.184 146.806,93.027 145.954,92.600 145.600 C 92.080 145.168,92.000 145.375,92.000 147.151 M102.128 150.800 C 102.128 152.230,102.201 152.815,102.289 152.100 C 102.378 151.385,102.378 150.215,102.289 149.500 C 102.201 148.785,102.128 149.370,102.128 150.800 M102.473 163.000 C 102.458 163.660,102.595 164.920,102.777 165.800 C 103.213 167.906,103.250 166.014,102.820 163.600 C 102.580 162.250,102.493 162.100,102.473 163.000 M92.924 167.209 C 92.903 168.524,93.040 169.600,93.230 169.600 C 93.420 169.600,93.478 169.348,93.360 169.040 C 93.242 168.733,93.317 168.375,93.528 168.245 C 93.761 168.100,93.935 169.832,93.975 172.691 C 94.010 175.266,94.121 177.454,94.220 177.553 C 94.528 177.862,94.358 168.699,94.020 166.800 C 93.844 165.810,93.675 165.180,93.644 165.400 C 93.613 165.620,93.447 165.579,93.276 165.309 C 93.104 165.039,92.946 165.894,92.924 167.209 M262.065 172.217 C 261.809 172.778,261.600 173.527,261.600 173.881 C 261.600 174.235,261.122 175.151,260.539 175.916 C 259.955 176.681,259.708 177.231,259.990 177.137 C 260.569 176.944,261.697 174.883,262.350 172.826 C 262.877 171.166,262.708 170.806,262.065 172.217 M103.334 178.800 C 103.334 180.450,103.405 181.125,103.491 180.300 C 103.578 179.475,103.578 178.125,103.491 177.300 C 103.405 176.475,103.334 177.150,103.334 178.800 M103.693 184.800 C 103.693 185.570,103.775 185.885,103.876 185.500 C 103.976 185.115,103.976 184.485,103.876 184.100 C 103.775 183.715,103.693 184.030,103.693 184.800 M94.079 187.131 C 94.135 188.453,94.305 189.459,94.456 189.365 C 94.608 189.272,94.828 189.421,94.946 189.698 C 95.063 189.974,95.124 189.044,95.080 187.632 C 95.028 185.961,94.821 185.004,94.489 184.895 C 94.105 184.768,94.003 185.324,94.079 187.131 M104.514 202.200 C 104.517 203.300,104.595 203.703,104.687 203.095 C 104.779 202.486,104.777 201.586,104.682 201.095 C 104.587 200.603,104.511 201.100,104.514 202.200 M119.293 202.400 C 119.293 203.170,119.375 203.485,119.476 203.100 C 119.576 202.715,119.576 202.085,119.476 201.700 C 119.375 201.315,119.293 201.630,119.293 202.400 M94.995 206.134 C 95.048 207.448,95.246 208.164,95.539 208.100 C 95.865 208.029,96.025 209.499,96.085 213.100 L 96.170 218.200 96.310 213.800 C 96.482 208.398,96.124 204.533,95.427 204.266 C 95.040 204.117,94.932 204.586,94.995 206.134 M127.600 204.833 L 126.600 205.648 127.904 205.012 C 129.306 204.328,130.467 204.636,131.487 205.965 C 131.776 206.342,131.980 206.408,131.987 206.127 C 132.030 204.552,129.030 203.667,127.600 204.833 M135.854 204.829 C 133.712 206.514,135.067 210.000,137.864 210.000 C 140.484 210.000,141.442 206.396,139.238 204.827 C 137.780 203.789,137.176 203.789,135.854 204.829 M144.254 204.829 C 142.796 205.976,142.796 208.024,144.254 209.171 C 145.502 210.152,146.752 210.230,147.824 209.393 C 148.547 208.829,148.527 208.818,147.529 209.244 C 145.258 210.214,143.177 208.542,143.760 206.215 C 144.450 203.466,148.378 204.406,148.394 207.324 C 148.397 207.970,148.570 208.342,148.800 208.200 C 149.555 207.733,149.199 206.460,147.969 205.231 C 146.524 203.786,145.694 203.696,144.254 204.829 M152.658 204.981 C 150.690 206.806,151.925 210.000,154.600 210.000 C 157.371 210.000,158.427 207.093,156.358 205.160 C 154.841 203.744,154.036 203.704,152.658 204.981 M138.842 205.022 C 140.548 205.904,140.437 208.762,138.673 209.379 C 135.890 210.353,133.722 206.426,136.277 205.041 C 137.669 204.286,137.423 204.288,138.842 205.022 M155.326 204.865 C 157.269 205.900,157.705 207.495,156.400 208.800 C 154.822 210.378,152.000 209.234,152.000 207.016 C 152.000 205.196,153.783 204.043,155.326 204.865 M126.446 206.600 C 126.313 209.616,129.109 211.159,131.300 209.277 C 131.685 208.947,132.000 208.524,132.000 208.338 C 132.000 208.152,131.640 208.360,131.200 208.800 C 129.617 210.383,127.365 209.553,126.807 207.180 C 126.628 206.421,126.466 206.160,126.446 206.600 M119.714 209.000 C 119.717 210.100,119.795 210.503,119.887 209.895 C 119.979 209.286,119.977 208.386,119.882 207.895 C 119.787 207.403,119.711 207.900,119.714 209.000 M105.337 217.400 C 105.339 219.160,105.409 219.830,105.493 218.889 C 105.578 217.949,105.577 216.509,105.491 215.689 C 105.405 214.870,105.336 215.640,105.337 217.400 M105.701 223.800 C 105.705 224.680,105.787 224.993,105.883 224.495 C 105.979 223.998,105.975 223.278,105.875 222.895 C 105.775 222.513,105.696 222.920,105.701 223.800 M96.000 226.000 C 96.000 226.880,96.191 227.600,96.424 227.600 C 96.657 227.600,96.744 227.768,96.617 227.972 C 96.491 228.177,96.539 228.439,96.726 228.554 C 96.912 228.669,97.104 227.782,97.153 226.582 C 97.223 224.839,97.116 224.400,96.621 224.400 C 96.163 224.400,96.000 224.821,96.000 226.000 M106.093 227.200 C 106.093 227.970,106.175 228.285,106.276 227.900 C 106.376 227.515,106.376 226.885,106.276 226.500 C 106.175 226.115,106.093 226.430,106.093 227.200 M128.582 232.182 C 128.042 232.722,127.621 233.577,127.646 234.082 C 127.688 234.898,127.714 234.911,127.886 234.200 C 128.444 231.894,130.764 230.961,132.325 232.416 C 132.806 232.864,133.200 233.054,133.200 232.838 C 133.200 231.252,129.971 230.793,128.582 232.182 M136.981 232.258 C 135.526 233.828,136.164 236.821,137.946 236.788 C 138.510 236.777,138.501 236.718,137.878 236.356 C 136.088 235.315,136.349 232.229,138.268 231.747 C 141.335 230.978,142.789 235.347,139.886 236.610 C 139.179 236.917,138.891 237.176,139.246 237.184 C 140.453 237.214,142.000 235.622,142.000 234.353 C 142.000 231.628,138.802 230.293,136.981 232.258 M145.878 231.644 C 143.954 232.763,144.343 236.023,146.489 236.771 C 148.273 237.393,148.411 237.264,146.800 236.480 C 144.417 235.319,144.868 231.600,147.392 231.600 C 149.561 231.600,150.828 234.975,149.111 236.177 C 148.622 236.520,148.414 236.800,148.649 236.800 C 149.453 236.800,150.400 235.338,150.400 234.098 C 150.400 231.961,147.778 230.539,145.878 231.644 M154.089 231.823 C 153.600 232.165,153.214 232.750,153.232 233.123 C 153.257 233.677,153.306 233.691,153.496 233.200 C 154.111 231.621,155.789 231.221,157.514 232.243 L 158.600 232.887 157.656 232.043 C 156.535 231.043,155.311 230.967,154.089 231.823 M162.182 232.182 C 160.949 233.414,160.929 234.806,162.126 235.930 C 163.401 237.128,163.795 237.031,162.582 235.818 C 160.389 233.625,163.233 230.284,165.699 232.156 C 167.424 233.465,166.587 236.800,164.533 236.800 C 164.167 236.800,163.965 236.899,164.086 237.019 C 164.617 237.550,166.366 236.649,166.789 235.627 C 168.113 232.431,164.577 229.787,162.182 232.182 M170.581 232.258 C 169.299 233.641,169.465 235.496,170.960 236.494 C 171.868 237.100,172.053 236.771,171.194 236.076 C 169.529 234.727,170.506 231.600,172.592 231.600 C 174.694 231.600,175.890 234.510,174.400 236.000 C 173.960 236.440,173.752 236.800,173.938 236.800 C 174.663 236.800,175.600 235.276,175.600 234.098 C 175.600 231.523,172.362 230.336,170.581 232.258 M133.059 234.803 C 132.881 235.694,132.454 236.189,131.507 236.601 C 130.788 236.913,130.417 237.176,130.681 237.184 C 132.288 237.237,134.397 234.664,133.491 233.758 C 133.389 233.656,133.195 234.126,133.059 234.803 M120.901 235.400 C 120.905 236.280,120.987 236.593,121.083 236.095 C 121.179 235.598,121.175 234.878,121.075 234.495 C 120.975 234.113,120.896 234.520,120.901 235.400 M153.212 235.038 C 153.195 235.671,154.439 236.666,155.600 236.949 C 156.337 237.128,156.265 237.038,155.325 236.605 C 154.624 236.282,153.864 235.699,153.637 235.309 C 153.410 234.919,153.219 234.797,153.212 235.038 M106.520 241.200 C 106.520 242.410,106.595 242.905,106.687 242.300 C 106.778 241.695,106.778 240.705,106.687 240.100 C 106.595 239.495,106.520 239.990,106.520 241.200 M142.930 242.300 C 153.452 242.359,170.552 242.359,180.930 242.300 C 191.309 242.241,182.700 242.192,161.800 242.192 C 140.900 242.192,132.409 242.241,142.930 242.300 M97.182 244.300 C 97.172 244.465,97.103 245.453,97.027 246.496 C 96.950 247.559,97.049 248.293,97.252 248.168 C 97.450 248.045,97.494 247.732,97.348 247.472 C 97.164 247.145,97.219 247.125,97.528 247.406 C 97.792 247.648,98.025 249.759,98.100 252.606 L 98.228 257.400 98.314 251.950 C 98.402 246.384,98.173 244.000,97.550 244.000 C 97.358 244.000,97.192 244.135,97.182 244.300 M107.342 255.400 C 107.341 257.380,107.408 258.240,107.492 257.312 C 107.576 256.384,107.577 254.764,107.495 253.712 C 107.412 252.660,107.343 253.420,107.342 255.400 M107.701 263.000 C 107.705 263.880,107.787 264.193,107.883 263.695 C 107.979 263.198,107.975 262.478,107.875 262.095 C 107.775 261.713,107.696 262.120,107.701 263.000 M98.054 266.100 C 98.084 267.475,98.187 268.195,98.282 267.700 C 98.378 267.205,98.623 266.800,98.828 266.800 C 99.033 266.800,99.200 266.080,99.200 265.200 C 99.200 264.044,99.033 263.600,98.600 263.600 C 98.125 263.600,98.011 264.120,98.054 266.100 M98.998 283.357 C 99.084 284.653,99.344 285.904,99.577 286.137 C 99.810 286.370,100.000 287.244,100.000 288.080 C 100.000 289.113,100.179 289.600,100.557 289.600 C 100.864 289.600,101.218 289.870,101.345 290.200 C 101.471 290.530,101.787 290.800,102.046 290.800 C 102.305 290.800,102.063 290.380,101.509 289.866 C 100.671 289.090,100.473 288.478,100.330 286.239 C 100.236 284.757,99.961 283.423,99.720 283.273 C 99.478 283.123,99.182 282.550,99.062 282.000 C 98.941 281.450,98.913 282.061,98.998 283.357 M213.600 283.000 C 213.600 284.869,214.574 284.869,214.677 283.000 C 214.731 282.012,214.584 281.600,214.177 281.600 C 213.784 281.600,213.600 282.047,213.600 283.000 M213.354 288.700 C 213.210 289.305,212.828 290.105,212.505 290.477 C 212.182 290.849,212.012 291.389,212.127 291.677 C 212.264 292.017,212.348 291.955,212.368 291.500 C 212.386 291.115,212.670 290.800,213.000 290.800 C 213.405 290.800,213.600 290.395,213.600 289.557 C 213.600 288.617,213.746 288.370,214.200 288.545 C 214.565 288.685,214.800 288.545,214.800 288.187 C 214.800 287.146,213.624 287.563,213.354 288.700 M240.341 324.755 C 241.131 325.256,240.486 326.237,237.631 328.875 C 235.212 331.111,234.884 332.013,236.171 332.894 C 237.176 333.582,242.000 332.346,242.000 331.400 C 242.000 331.174,239.940 332.032,239.420 332.476 C 238.671 333.115,236.444 332.830,236.022 332.041 C 235.682 331.405,235.924 330.999,237.512 329.541 C 240.878 326.451,242.076 324.392,240.500 324.406 C 239.956 324.411,239.921 324.489,240.341 324.755 M261.022 325.800 C 261.182 326.460,261.447 327.630,261.610 328.400 L 261.908 329.800 261.954 328.346 C 261.979 327.546,261.714 326.376,261.365 325.746 L 260.731 324.600 261.022 325.800 M243.525 332.000 L 244.578 333.200 253.246 333.200 C 262.464 333.200,262.475 333.198,262.360 331.267 C 262.338 330.891,262.199 331.037,262.042 331.600 L 261.764 332.600 253.317 332.708 L 244.870 332.816 244.078 331.808 C 243.642 331.254,243.102 330.800,242.879 330.800 C 242.655 330.800,242.946 331.340,243.525 332.000 " stroke="none" fill="#800080" fill-rule="evenodd"></path><path id="path5" d="M254.457 98.227 C 254.303 102.343,256.300 104.800,259.797 104.800 C 260.363 104.800,261.472 105.070,262.262 105.400 C 264.097 106.167,264.064 106.177,263.527 105.000 C 263.122 104.111,262.823 103.998,260.836 103.981 C 256.258 103.941,254.620 102.232,255.007 97.900 C 255.140 96.415,255.096 95.200,254.909 95.200 C 254.722 95.200,254.519 96.562,254.457 98.227 M249.680 99.211 C 249.596 102.781,249.891 103.642,251.778 105.340 C 254.611 107.891,262.231 109.119,263.685 107.259 C 264.130 106.690,264.116 106.666,263.583 107.080 C 262.848 107.652,256.994 107.531,255.794 106.919 C 251.902 104.934,251.820 104.873,250.712 103.141 C 250.266 102.443,249.988 101.010,249.898 98.941 L 249.761 95.800 249.680 99.211 M129.700 99.100 C 143.505 99.158,166.095 99.158,179.900 99.100 C 193.705 99.042,182.410 98.994,154.800 98.994 C 127.190 98.994,115.895 99.042,129.700 99.100 M230.000 175.197 L 230.000 177.287 231.100 176.954 C 231.705 176.770,235.009 176.616,238.441 176.610 L 244.683 176.600 243.901 175.100 C 243.132 173.625,243.081 173.600,240.760 173.600 L 238.400 173.600 238.394 175.100 C 238.389 176.216,238.288 176.446,238.000 176.000 C 237.787 175.670,237.609 174.995,237.606 174.500 C 237.600 173.650,237.437 173.600,234.700 173.595 C 233.105 173.592,231.395 173.481,230.900 173.348 C 230.051 173.120,230.000 173.224,230.000 175.197 M141.600 185.992 C 140.615 186.615,140.769 191.391,141.800 192.170 C 143.145 193.186,176.013 193.091,176.938 192.069 C 177.991 190.905,177.833 187.559,176.674 186.470 C 175.662 185.519,143.051 185.074,141.600 185.992 M138.223 255.188 C 133.560 256.108,133.241 266.721,137.818 268.633 C 139.771 269.449,186.566 269.476,188.513 268.662 C 192.213 267.115,191.990 257.082,188.221 255.515 C 186.823 254.935,141.028 254.635,138.223 255.188 M242.073 322.487 C 241.519 323.041,241.443 324.000,241.953 324.000 C 242.285 324.000,242.898 322.365,242.657 322.124 C 242.597 322.063,242.334 322.226,242.073 322.487 " stroke="none" fill="#800080" fill-rule="evenodd"></path><path id="path6" d="M235.696 108.395 C 235.423 108.832,235.200 109.912,235.200 110.795 C 235.200 111.955,235.034 112.400,234.600 112.400 C 234.270 112.400,234.000 112.681,234.000 113.024 C 234.000 113.367,233.820 113.536,233.600 113.400 C 232.970 113.011,233.127 115.332,233.825 116.731 C 234.169 117.420,234.619 118.088,234.825 118.216 C 235.031 118.343,235.200 119.322,235.200 120.390 C 235.200 121.459,235.390 122.397,235.622 122.474 C 235.854 122.551,236.089 122.926,236.145 123.307 C 236.269 124.151,237.545 125.170,238.500 125.187 C 238.885 125.194,239.200 125.470,239.200 125.800 C 239.200 126.253,239.689 126.400,241.200 126.400 L 243.200 126.400 243.200 127.957 C 243.200 128.972,242.991 129.595,242.600 129.745 C 242.270 129.871,242.000 130.341,242.000 130.787 C 242.000 131.388,241.738 131.600,241.000 131.600 C 239.883 131.600,239.621 132.569,240.633 132.957 C 241.457 133.273,251.743 133.273,252.567 132.957 C 253.258 132.692,253.446 131.600,252.800 131.600 C 252.567 131.600,252.400 130.282,252.400 128.447 C 252.400 124.803,252.414 124.815,248.123 124.805 C 243.050 124.794,239.016 119.229,241.526 115.704 C 243.369 113.116,242.617 110.800,239.933 110.800 C 239.033 110.800,238.658 110.490,238.000 109.200 C 237.096 107.427,236.443 107.199,235.696 108.395 M266.043 148.700 C 263.598 151.419,262.542 155.299,264.000 156.200 C 264.220 156.336,264.400 157.317,264.400 158.381 C 264.400 159.731,264.581 160.384,265.000 160.545 C 265.790 160.848,265.870 165.200,265.085 165.200 C 264.792 165.200,264.528 165.754,264.472 166.484 C 264.418 167.191,264.233 167.866,264.059 167.984 C 263.886 168.103,263.339 169.550,262.845 171.200 C 262.350 172.850,261.561 174.957,261.091 175.881 L 260.237 177.562 261.096 179.681 C 261.568 180.847,262.250 182.728,262.611 183.862 C 263.405 186.356,265.600 187.173,265.600 184.975 C 265.600 184.719,266.052 184.057,266.605 183.504 C 267.831 182.278,267.755 180.664,266.462 180.472 C 265.988 180.402,265.600 180.087,265.600 179.772 C 265.600 179.457,265.330 179.200,265.000 179.200 C 264.670 179.200,264.400 178.930,264.400 178.600 C 264.400 178.270,264.593 178.000,264.829 178.000 C 265.382 178.000,266.400 176.982,266.400 176.429 C 266.400 176.193,266.593 176.000,266.829 176.000 C 267.266 176.000,268.400 175.025,268.400 174.649 C 268.400 174.535,268.850 173.956,269.400 173.362 C 269.950 172.769,270.400 172.039,270.400 171.742 C 270.400 171.444,270.670 171.200,271.000 171.200 C 271.373 171.200,271.600 170.822,271.600 170.200 C 271.600 169.650,271.780 169.200,272.000 169.200 C 272.220 169.200,272.400 168.679,272.400 168.043 C 272.400 167.383,272.658 166.787,273.000 166.655 C 273.485 166.469,273.600 165.548,273.600 161.855 C 273.600 158.162,273.485 157.241,273.000 157.055 C 272.558 156.886,272.400 156.188,272.400 154.413 C 272.400 153.071,272.222 152.000,272.000 152.000 C 271.780 152.000,271.600 151.280,271.600 150.400 C 271.600 149.244,271.433 148.800,271.000 148.800 C 270.581 148.800,270.400 148.378,270.400 147.400 C 270.400 145.042,268.939 145.478,266.043 148.700 M220.800 147.800 C 220.800 148.350,220.632 148.800,220.427 148.800 C 220.221 148.800,219.996 149.295,219.927 149.900 C 219.857 150.505,219.605 150.965,219.367 150.922 C 219.128 150.879,218.933 151.101,218.933 151.415 C 218.933 152.159,217.510 154.800,217.109 154.800 C 216.939 154.800,216.800 155.250,216.800 155.800 C 216.800 156.350,216.623 156.800,216.408 156.800 C 216.192 156.800,215.902 157.250,215.764 157.800 C 215.626 158.350,215.353 158.800,215.157 158.800 C 214.960 158.800,214.800 159.048,214.800 159.351 C 214.800 159.654,214.530 160.126,214.200 160.400 C 213.870 160.674,213.600 161.212,213.600 161.595 C 213.600 165.062,200.162 167.976,195.096 165.607 C 190.022 163.235,188.933 163.319,188.550 166.112 L 188.292 167.992 190.952 169.236 L 193.612 170.481 203.596 170.340 C 212.010 170.222,213.597 170.290,213.690 170.771 C 213.780 171.240,213.921 171.222,214.471 170.671 C 214.841 170.302,215.501 170.000,215.938 170.000 C 216.375 170.000,216.797 169.810,216.874 169.578 C 216.951 169.346,217.301 169.114,217.651 169.063 C 218.410 168.952,219.600 167.832,219.600 167.229 C 219.600 166.993,219.842 166.800,220.137 166.800 C 220.432 166.800,221.013 166.170,221.428 165.400 C 221.843 164.630,222.321 164.000,222.491 164.000 C 222.661 164.000,222.800 163.749,222.800 163.443 C 222.800 163.136,223.070 162.782,223.400 162.655 C 223.730 162.529,224.000 162.059,224.000 161.613 C 224.000 161.166,224.180 160.800,224.400 160.800 C 224.620 160.800,224.800 160.350,224.800 159.800 C 224.800 159.250,225.005 158.800,225.256 158.800 C 225.922 158.800,226.773 157.535,226.787 156.524 C 226.794 156.042,226.980 155.536,227.200 155.400 C 228.657 154.499,223.958 146.800,221.951 146.800 C 220.990 146.800,220.800 146.965,220.800 147.800 M246.800 313.161 C 246.470 313.346,245.480 313.624,244.600 313.778 C 241.876 314.257,241.200 314.932,241.200 317.176 C 241.200 318.252,241.335 319.193,241.500 319.267 C 241.665 319.340,242.076 319.939,242.414 320.597 C 243.893 323.482,250.400 320.282,250.400 316.669 C 250.400 315.808,250.173 315.199,249.800 315.055 C 249.470 314.929,249.200 314.479,249.200 314.055 C 249.200 312.972,247.961 312.510,246.800 313.161 M253.639 317.968 C 253.205 318.242,253.131 318.962,253.314 321.141 C 253.673 325.428,253.836 325.600,257.534 325.600 L 260.639 325.600 261.120 324.272 C 261.740 322.557,261.740 318.700,261.120 318.080 C 260.557 317.517,254.495 317.426,253.639 317.968 " stroke="none" fill="#cd8068" fill-rule="evenodd"></path><path id="path7" d="M100.476 107.220 L 100.551 112.600 100.778 107.600 C 100.903 104.850,100.869 102.429,100.702 102.220 C 100.536 102.011,100.434 104.261,100.476 107.220 M104.800 104.000 C 104.800 104.265,121.748 104.390,154.900 104.372 C 183.219 104.356,204.652 104.194,204.200 104.000 C 203.032 103.498,104.800 103.498,104.800 104.000 M103.606 107.500 C 103.609 108.985,103.787 110.470,104.000 110.800 C 104.268 111.214,104.390 110.378,104.394 108.100 C 104.397 106.163,104.235 104.800,104.000 104.800 C 103.772 104.800,103.603 105.963,103.606 107.500 M205.200 110.576 C 205.200 113.659,205.355 115.600,205.600 115.600 C 205.844 115.600,206.000 113.741,206.000 110.824 C 206.000 108.071,205.831 105.942,205.600 105.800 C 205.341 105.640,205.200 107.329,205.200 110.576 M104.971 122.000 C 104.971 126.950,105.028 128.975,105.099 126.500 C 105.169 124.025,105.169 119.975,105.099 117.500 C 105.028 115.025,104.971 117.050,104.971 122.000 M100.886 116.400 C 100.882 117.610,101.014 120.130,101.178 122.000 L 101.476 125.400 101.515 121.400 C 101.536 119.200,101.405 116.680,101.223 115.800 C 100.894 114.208,100.892 114.212,100.886 116.400 M150.200 115.379 C 120.109 121.438,119.540 162.179,149.400 172.645 C 155.918 174.930,166.682 173.957,171.995 170.603 C 172.869 170.051,173.703 169.600,173.848 169.600 C 174.425 169.600,179.158 165.128,180.699 163.128 C 190.582 150.293,187.159 130.780,173.273 120.798 C 166.483 115.916,157.735 113.861,150.200 115.379 M206.572 127.000 C 206.572 132.060,206.629 134.075,206.699 131.477 C 206.769 128.880,206.768 124.740,206.698 122.277 C 206.628 119.815,206.571 121.940,206.572 127.000 M159.800 120.347 C 161.120 120.508,162.593 120.856,163.074 121.120 C 163.554 121.384,164.319 121.600,164.774 121.600 C 165.228 121.600,165.600 121.780,165.600 122.000 C 165.600 122.220,165.949 122.400,166.376 122.400 C 166.803 122.400,167.261 122.575,167.393 122.789 C 167.526 123.003,168.239 123.466,168.980 123.817 C 173.131 125.787,180.000 134.517,180.000 137.823 C 180.000 138.324,180.225 138.808,180.500 138.899 C 181.327 139.174,181.438 150.440,180.630 152.061 C 180.283 152.755,180.000 153.573,180.000 153.878 C 180.000 155.020,178.255 156.917,177.940 156.118 C 177.690 155.486,177.653 155.502,177.628 156.251 C 177.613 156.719,177.330 157.326,177.000 157.600 C 176.670 157.874,176.400 158.302,176.400 158.552 C 176.400 159.432,170.974 164.227,168.800 165.267 C 163.590 167.761,163.779 167.720,157.691 167.700 C 153.009 167.684,151.822 167.563,151.245 167.040 C 150.855 166.688,150.071 166.400,149.502 166.400 C 148.932 166.400,148.407 166.265,148.333 166.100 C 148.260 165.935,147.310 165.350,146.221 164.800 C 143.891 163.622,138.255 158.425,137.529 156.784 C 137.192 156.024,136.922 155.801,136.723 156.120 C 136.216 156.931,133.600 152.637,133.600 150.995 C 133.600 150.536,133.380 149.940,133.112 149.672 C 132.416 148.976,132.405 137.435,133.100 136.740 C 133.375 136.465,133.600 135.961,133.600 135.620 C 133.599 133.237,140.076 124.811,142.831 123.610 C 143.364 123.378,144.340 122.844,145.000 122.423 C 145.660 122.003,146.560 121.640,147.000 121.617 C 147.440 121.593,148.149 121.310,148.576 120.987 C 149.004 120.664,150.174 120.387,151.176 120.372 C 152.179 120.356,153.360 120.181,153.800 119.982 C 154.240 119.782,155.230 119.717,156.000 119.836 C 156.770 119.956,158.480 120.186,159.800 120.347 M152.200 126.652 C 151.245 127.119,151.205 127.181,152.000 126.959 C 153.849 126.443,158.473 126.313,158.925 126.765 C 159.164 127.004,159.639 127.194,159.980 127.186 C 160.373 127.177,160.235 126.963,159.600 126.600 C 158.294 125.854,153.767 125.885,152.200 126.652 M101.902 133.800 C 102.016 137.760,102.247 143.250,102.414 146.000 C 102.640 149.723,102.665 148.957,102.512 143.000 C 102.399 138.600,102.169 133.110,102.001 130.800 C 101.782 127.804,101.754 128.663,101.902 133.800 M148.954 128.908 C 147.301 130.660,146.107 132.640,146.479 133.012 C 146.596 133.130,146.929 132.635,147.217 131.913 C 147.506 131.191,148.438 129.903,149.289 129.051 C 150.140 128.200,150.772 127.439,150.693 127.360 C 150.614 127.281,149.832 127.978,148.954 128.908 M161.200 127.327 C 161.200 127.539,164.850 131.200,165.062 131.200 C 165.148 131.200,164.931 130.761,164.579 130.225 C 163.995 129.333,161.200 126.936,161.200 127.327 M165.200 131.678 C 165.200 131.804,165.463 132.514,165.784 133.254 C 166.189 134.186,166.370 134.354,166.372 133.800 C 166.373 133.360,166.110 132.651,165.787 132.224 C 165.464 131.796,165.200 131.551,165.200 131.678 M106.170 141.800 C 106.171 146.640,106.229 148.565,106.299 146.078 C 106.369 143.591,106.369 139.631,106.298 137.278 C 106.228 134.925,106.170 136.960,106.170 141.800 M146.101 135.800 C 146.105 136.680,146.187 136.993,146.283 136.495 C 146.379 135.998,146.375 135.278,146.275 134.895 C 146.175 134.513,146.096 134.920,146.101 135.800 M166.514 137.000 C 166.517 138.100,166.595 138.503,166.687 137.895 C 166.779 137.286,166.777 136.386,166.682 135.895 C 166.587 135.403,166.511 135.900,166.514 137.000 M207.200 146.576 C 207.200 151.596,207.354 154.848,207.600 155.000 C 207.862 155.162,208.000 152.337,208.000 146.824 C 208.000 141.475,207.854 138.400,207.600 138.400 C 207.346 138.400,207.200 141.392,207.200 146.576 M146.413 138.905 C 146.339 140.673,151.519 146.012,153.292 145.995 C 153.571 145.993,152.990 145.530,152.000 144.966 C 150.194 143.939,147.622 141.369,147.608 140.576 C 147.599 140.083,146.432 138.451,146.413 138.905 M166.046 139.876 C 166.021 140.358,165.820 140.864,165.600 141.000 C 165.380 141.136,165.200 141.457,165.200 141.713 C 165.200 141.969,165.483 141.775,165.828 141.282 C 166.173 140.789,166.374 140.073,166.274 139.693 C 166.137 139.167,166.082 139.211,166.046 139.876 M163.976 143.426 C 163.446 143.990,162.418 144.734,161.692 145.078 C 160.966 145.423,160.451 145.784,160.549 145.882 C 160.868 146.202,162.977 144.896,164.175 143.636 C 164.821 142.956,165.257 142.400,165.145 142.400 C 165.032 142.400,164.506 142.862,163.976 143.426 M249.700 145.897 C 245.975 146.074,245.997 146.568,249.750 147.043 C 252.661 147.412,252.700 147.405,252.700 146.509 C 252.700 146.009,252.678 145.636,252.650 145.679 C 252.623 145.723,251.295 145.821,249.700 145.897 M155.338 146.490 C 156.372 146.764,157.421 146.766,158.538 146.497 C 160.087 146.123,159.983 146.096,157.000 146.089 C 154.094 146.083,153.941 146.120,155.338 146.490 M246.800 148.805 C 246.800 149.807,252.223 149.921,252.481 148.924 C 252.649 148.274,252.367 148.199,249.734 148.193 C 247.348 148.187,246.800 148.301,246.800 148.805 M152.800 150.000 C 151.955 150.178,153.698 150.297,157.200 150.301 C 161.267 150.306,162.522 150.209,161.400 149.977 C 159.476 149.579,154.740 149.592,152.800 150.000 M245.263 151.715 C 245.218 153.207,245.312 153.629,245.594 153.200 C 246.077 152.464,246.125 150.125,245.663 149.839 C 245.477 149.724,245.297 150.569,245.263 151.715 M147.200 151.025 C 146.291 151.369,146.080 151.561,146.600 151.571 C 147.040 151.581,148.120 151.329,149.000 151.012 C 150.207 150.577,150.355 150.443,149.600 150.465 C 149.050 150.482,147.970 150.734,147.200 151.025 M165.400 151.012 C 166.280 151.329,167.360 151.583,167.800 151.576 C 168.249 151.570,167.899 151.312,167.000 150.988 C 166.120 150.671,165.040 150.417,164.600 150.424 C 164.151 150.430,164.501 150.688,165.400 151.012 M141.824 153.013 C 141.276 153.427,141.217 153.596,141.624 153.587 C 141.941 153.580,142.549 153.310,142.976 152.987 C 143.524 152.573,143.583 152.404,143.176 152.413 C 142.859 152.420,142.251 152.690,141.824 153.013 M171.746 153.002 C 172.376 153.331,173.096 153.594,173.346 153.586 C 174.000 153.565,171.917 152.431,171.200 152.417 C 170.870 152.410,171.116 152.674,171.746 153.002 M106.970 161.400 C 106.971 166.240,107.029 168.165,107.099 165.678 C 107.169 163.191,107.169 159.231,107.098 156.878 C 107.028 154.525,106.970 156.560,106.970 161.400 M103.026 157.200 C 103.692 171.329,104.109 179.627,104.381 184.200 L 104.691 189.400 104.616 183.400 C 104.510 174.950,103.631 157.386,103.194 155.000 C 102.908 153.440,102.872 153.923,103.026 157.200 M138.811 154.620 C 138.047 155.159,137.542 155.600,137.688 155.600 C 138.039 155.600,140.800 153.968,140.800 153.760 C 140.800 153.400,140.125 153.692,138.811 154.620 M174.000 153.760 C 174.000 154.035,176.891 155.642,177.067 155.466 C 177.159 155.374,176.586 154.917,175.794 154.450 C 174.349 153.597,174.000 153.463,174.000 153.760 M208.476 160.200 C 208.428 161.960,208.284 163.793,208.155 164.273 C 207.958 165.009,208.054 165.111,208.769 164.924 C 209.365 164.768,209.501 164.562,209.226 164.231 C 209.011 163.972,208.774 162.239,208.699 160.380 L 208.563 157.000 208.476 160.200 M259.300 160.162 C 259.685 160.451,260.000 160.989,260.000 161.357 C 260.000 161.724,260.270 162.129,260.600 162.255 C 260.987 162.404,261.200 163.023,261.200 164.000 C 261.200 164.871,261.420 165.599,261.718 165.713 C 262.460 165.998,262.566 163.648,261.847 162.843 C 261.531 162.489,261.212 161.762,261.136 161.227 C 261.039 160.533,260.655 160.165,259.800 159.945 C 258.753 159.675,258.689 159.703,259.300 160.162 M204.100 165.476 C 204.485 165.576,205.115 165.576,205.500 165.476 C 205.885 165.375,205.570 165.293,204.800 165.293 C 204.030 165.293,203.715 165.375,204.100 165.476 M187.660 166.651 C 187.623 167.423,187.868 168.112,188.300 168.451 C 188.909 168.929,188.940 168.922,188.535 168.400 C 188.280 168.070,187.992 167.260,187.895 166.600 L 187.720 165.400 187.660 166.651 M199.900 165.882 C 200.395 165.978,201.205 165.978,201.700 165.882 C 202.195 165.787,201.790 165.709,200.800 165.709 C 199.810 165.709,199.405 165.787,199.900 165.882 M262.207 167.238 C 262.062 167.809,262.010 168.979,262.090 169.838 L 262.235 171.400 262.926 169.892 C 263.539 168.556,263.552 168.260,263.043 167.292 L 262.469 166.200 262.207 167.238 M206.000 171.165 L 208.200 171.400 208.437 173.400 L 208.674 175.400 208.737 173.733 C 208.772 172.816,208.909 171.781,209.043 171.433 C 209.251 170.890,208.895 170.809,206.543 170.865 L 203.800 170.930 206.000 171.165 M108.171 181.200 C 108.171 186.150,108.228 188.175,108.299 185.700 C 108.369 183.225,108.369 179.175,108.299 176.700 C 108.228 174.225,108.171 176.250,108.171 181.200 M243.646 173.811 C 243.596 174.698,244.626 176.400,245.214 176.400 C 245.417 176.400,245.378 175.950,245.127 175.400 C 244.877 174.850,244.534 174.400,244.365 174.400 C 244.197 174.400,243.976 174.085,243.876 173.700 C 243.724 173.118,243.685 173.137,243.646 173.811 M209.467 177.467 C 209.043 177.890,209.168 193.731,209.600 194.400 C 209.857 194.797,209.990 191.994,209.994 186.100 C 209.997 181.205,209.940 177.200,209.867 177.200 C 209.793 177.200,209.613 177.320,209.467 177.467 M250.000 178.800 C 250.330 179.013,250.870 179.188,251.200 179.188 C 251.733 179.188,251.733 179.145,251.200 178.800 C 250.870 178.587,250.330 178.412,250.000 178.412 C 249.467 178.412,249.467 178.455,250.000 178.800 M105.016 196.000 C 105.485 206.575,106.080 218.215,106.375 222.600 L 106.697 227.400 106.612 221.800 C 106.484 213.467,105.601 196.089,105.189 193.800 C 104.910 192.245,104.871 192.735,105.016 196.000 M108.806 200.724 C 108.802 206.306,108.938 209.162,109.200 209.000 C 109.723 208.677,109.723 193.610,109.200 192.800 C 108.943 192.402,108.810 195.073,108.806 200.724 M210.468 205.600 C 210.461 211.184,210.596 214.675,210.800 214.200 C 211.232 213.194,211.232 198.550,210.800 197.200 C 210.620 196.637,210.475 200.309,210.468 205.600 M119.051 199.853 C 118.260 200.938,118.361 207.846,119.226 211.800 C 119.604 213.533,119.482 209.962,118.956 203.937 C 118.700 201.005,118.733 200.831,119.726 199.837 C 120.297 199.267,120.547 198.806,120.282 198.813 C 120.017 198.819,119.463 199.288,119.051 199.853 M199.520 199.611 C 200.471 200.497,200.719 201.273,200.925 204.000 C 201.045 205.594,201.068 205.532,201.130 203.462 C 201.201 201.096,200.200 198.800,199.097 198.800 C 198.851 198.800,199.041 199.165,199.520 199.611 M110.171 220.400 C 110.171 225.350,110.228 227.375,110.299 224.900 C 110.369 222.425,110.369 218.375,110.299 215.900 C 110.228 213.425,110.171 215.450,110.171 220.400 M120.162 214.700 L 120.924 215.600 160.400 215.600 L 199.876 215.600 200.638 214.700 C 201.399 213.801,201.399 213.801,200.569 214.500 C 199.789 215.156,197.280 215.200,160.400 215.200 C 123.520 215.200,121.011 215.156,120.231 214.500 C 119.401 213.801,119.401 213.801,120.162 214.700 M211.467 216.667 C 211.043 217.091,211.168 233.331,211.600 234.000 C 211.857 234.397,211.990 231.523,211.994 225.500 C 211.997 220.495,211.940 216.400,211.867 216.400 C 211.793 216.400,211.613 216.520,211.467 216.667 M141.730 225.900 C 152.472 225.959,169.932 225.959,180.530 225.900 C 191.129 225.841,182.340 225.792,161.000 225.792 C 139.660 225.792,130.989 225.841,141.730 225.900 M200.946 226.829 C 201.861 227.549,202.010 227.983,202.076 230.129 L 202.151 232.600 202.295 230.316 C 202.449 227.870,201.671 226.000,200.500 226.000 C 200.100 226.000,200.252 226.283,200.946 226.829 M120.109 229.600 C 120.109 230.590,120.187 230.995,120.282 230.500 C 120.378 230.005,120.378 229.195,120.282 228.700 C 120.187 228.205,120.109 228.610,120.109 229.600 M107.018 234.800 C 107.500 245.772,108.078 257.030,108.374 261.200 L 108.701 265.800 108.605 260.600 C 108.444 251.943,107.617 235.529,107.213 232.988 C 106.883 230.911,106.858 231.147,107.018 234.800 M110.806 240.124 C 110.802 245.839,110.938 248.762,111.200 248.600 C 111.724 248.276,111.724 232.811,111.200 232.000 C 110.943 231.602,110.810 234.343,110.806 240.124 M120.484 236.269 C 120.404 240.124,120.455 240.404,121.436 241.569 L 122.471 242.800 161.736 242.787 C 193.751 242.777,201.129 242.676,201.700 242.243 C 202.726 241.465,202.556 241.046,201.511 241.777 C 200.721 242.331,196.279 242.400,161.692 242.400 L 122.762 242.400 121.794 241.356 C 120.926 240.420,120.814 239.896,120.698 236.256 L 120.569 232.200 120.484 236.269 M202.531 237.465 C 202.564 239.260,202.728 240.645,202.895 240.541 C 203.278 240.304,203.210 236.995,202.789 235.400 C 202.570 234.572,202.490 235.211,202.531 237.465 M212.428 244.724 C 212.410 250.844,212.537 253.962,212.800 253.800 C 213.295 253.494,213.295 237.351,212.800 236.200 C 212.594 235.721,212.445 239.144,212.428 244.724 M112.171 260.000 C 112.171 264.950,112.228 266.975,112.299 264.500 C 112.369 262.025,112.369 257.975,112.299 255.500 C 112.228 253.025,112.171 255.050,112.171 260.000 M213.228 264.100 C 213.244 268.775,213.411 272.960,213.600 273.400 C 213.806 273.879,213.955 270.466,213.972 264.900 C 213.990 258.948,213.856 255.600,213.600 255.600 C 213.345 255.600,213.210 258.681,213.228 264.100 M108.847 272.000 C 108.776 276.320,109.952 278.993,112.600 280.534 C 113.514 281.066,214.865 281.628,214.538 281.100 C 214.436 280.935,191.784 280.800,164.200 280.800 C 131.196 280.800,113.963 280.663,113.800 280.400 C 113.664 280.180,113.233 280.000,112.843 280.000 C 111.140 280.000,109.966 277.765,109.413 273.468 C 108.900 269.482,108.889 269.452,108.847 272.000 M112.800 273.514 C 112.800 276.112,113.660 277.513,114.809 276.786 C 115.278 276.490,115.214 276.411,114.500 276.406 C 113.668 276.400,113.600 276.220,113.600 274.024 C 113.600 272.717,113.420 271.536,113.200 271.400 C 112.951 271.246,112.800 272.042,112.800 273.514 M213.017 276.372 C 212.891 276.577,212.970 276.858,213.193 276.996 C 213.671 277.291,214.400 276.917,214.400 276.376 C 214.400 275.890,213.317 275.887,213.017 276.372 " stroke="none" fill="#800080" fill-rule="evenodd"></path><path id="path8" d="M93.200 102.685 C 93.200 102.968,93.006 103.200,92.769 103.200 C 91.580 103.200,89.966 105.576,90.061 107.186 C 90.114 108.074,90.282 108.800,90.435 108.800 C 90.873 108.800,91.195 107.067,90.939 106.088 C 90.790 105.520,90.887 105.200,91.207 105.200 C 91.483 105.200,92.125 104.750,92.635 104.200 C 93.475 103.294,93.862 103.200,96.765 103.200 L 99.969 103.200 100.102 106.700 L 100.235 110.200 100.318 106.100 L 100.400 102.000 98.376 102.000 C 96.864 102.000,96.429 102.126,96.653 102.500 C 96.886 102.887,96.811 102.885,96.324 102.490 C 95.530 101.847,93.200 101.993,93.200 102.685 M90.285 109.883 C 89.883 110.508,89.974 121.600,90.382 121.600 C 90.793 121.600,91.209 118.438,91.165 115.644 C 91.114 112.355,90.650 109.317,90.285 109.883 M100.461 116.610 C 100.428 119.036,100.565 122.456,100.767 124.210 C 100.969 125.965,101.260 131.090,101.413 135.600 C 101.566 140.110,101.839 144.880,102.019 146.200 C 102.488 149.633,101.638 128.490,100.838 116.800 L 100.523 112.200 100.461 116.610 M153.800 119.982 C 153.360 120.181,152.179 120.356,151.176 120.372 C 150.174 120.387,149.004 120.664,148.576 120.987 C 148.149 121.310,147.440 121.593,147.000 121.617 C 146.560 121.640,145.660 122.003,145.000 122.423 C 144.340 122.844,143.364 123.378,142.831 123.610 C 140.076 124.811,133.599 133.237,133.600 135.620 C 133.600 135.961,133.375 136.465,133.100 136.740 C 132.405 137.435,132.416 148.976,133.112 149.672 C 133.380 149.940,133.600 150.536,133.600 150.995 C 133.600 152.574,136.206 156.916,136.711 156.179 C 136.870 155.947,137.675 155.348,138.500 154.846 C 139.325 154.345,140.000 153.842,140.000 153.729 C 140.000 153.616,139.197 153.995,138.215 154.570 L 136.429 155.617 135.782 154.628 C 129.943 145.717,133.198 131.265,142.536 124.642 C 160.310 112.034,186.386 131.010,180.027 151.923 C 178.900 155.628,178.678 155.797,176.558 154.554 C 175.591 153.988,174.800 153.620,174.800 153.736 C 174.800 153.853,175.520 154.353,176.400 154.848 C 177.280 155.343,178.001 156.029,178.002 156.374 C 178.005 157.212,179.966 154.826,179.986 153.961 C 179.994 153.610,180.283 152.755,180.630 152.061 C 181.438 150.440,181.327 139.174,180.500 138.899 C 180.225 138.808,180.000 138.324,180.000 137.823 C 180.000 134.517,173.131 125.787,168.980 123.817 C 168.239 123.466,167.526 123.003,167.393 122.789 C 167.261 122.575,166.803 122.400,166.376 122.400 C 165.949 122.400,165.600 122.220,165.600 122.000 C 165.600 121.780,165.228 121.600,164.774 121.600 C 164.319 121.600,163.554 121.384,163.074 121.120 C 162.593 120.856,161.120 120.508,159.800 120.347 C 158.480 120.186,156.770 119.956,156.000 119.836 C 155.230 119.717,154.240 119.782,153.800 119.982 M154.707 125.890 C 155.426 125.979,156.506 125.977,157.107 125.886 C 157.708 125.795,157.120 125.722,155.800 125.724 C 154.480 125.726,153.988 125.801,154.707 125.890 M160.007 126.732 C 162.434 127.884,163.961 129.190,165.047 131.044 C 165.625 132.030,166.183 132.751,166.287 132.646 C 166.998 131.935,162.719 127.546,160.281 126.486 C 158.610 125.760,158.384 125.962,160.007 126.732 M149.400 127.906 C 148.740 128.508,147.939 129.360,147.620 129.800 C 147.301 130.240,147.928 129.790,149.013 128.800 C 150.098 127.810,151.063 126.955,151.159 126.900 C 151.255 126.845,151.168 126.803,150.967 126.806 C 150.765 126.810,150.060 127.305,149.400 127.906 M91.056 129.478 C 90.915 129.618,90.803 129.928,90.806 130.167 C 90.809 130.405,90.987 130.330,91.200 130.000 C 91.433 129.639,91.590 129.590,91.594 129.876 C 91.597 130.138,91.423 130.462,91.206 130.596 C 90.797 130.849,90.674 140.005,91.066 141.028 C 91.705 142.693,92.000 140.987,92.000 135.624 C 92.000 130.185,91.780 128.753,91.056 129.478 M166.581 136.722 C 166.592 138.770,166.717 140.030,166.860 139.522 C 167.203 138.308,167.192 135.259,166.842 134.000 C 166.688 133.447,166.571 134.665,166.581 136.722 M165.584 141.666 C 165.320 142.180,164.541 143.228,163.852 143.996 C 162.682 145.301,162.674 145.327,163.739 144.396 C 165.133 143.178,166.563 141.230,166.276 140.943 C 166.160 140.827,165.849 141.152,165.584 141.666 M147.586 141.800 C 148.835 143.541,150.257 144.898,151.400 145.441 C 152.060 145.755,152.240 145.784,151.800 145.506 C 151.360 145.228,150.103 144.100,149.006 143.000 C 147.910 141.900,147.271 141.360,147.586 141.800 M247.646 142.474 C 247.397 142.874,246.925 143.200,246.597 143.200 C 245.825 143.200,245.841 143.785,246.646 145.014 C 247.218 145.887,247.577 146.000,249.784 146.000 C 254.362 146.000,254.396 143.348,249.833 142.189 C 248.306 141.801,248.046 141.835,247.646 142.474 M161.000 145.814 C 160.340 146.117,160.081 146.372,160.424 146.382 C 160.766 146.392,161.396 146.136,161.824 145.813 C 162.772 145.096,162.569 145.096,161.000 145.814 M154.000 146.573 C 155.564 147.205,158.327 147.361,159.115 146.861 C 159.416 146.670,158.751 146.548,157.515 146.567 C 156.352 146.585,154.770 146.467,154.000 146.304 L 152.600 146.007 154.000 146.573 M92.023 155.000 C 92.068 160.780,92.463 162.469,92.946 158.944 C 93.494 154.944,93.136 149.200,92.339 149.200 C 92.139 149.200,91.998 151.787,92.023 155.000 M151.400 149.837 L 149.000 150.371 151.400 150.086 C 152.720 149.928,155.780 149.807,158.200 149.816 C 160.620 149.825,162.060 149.711,161.400 149.563 C 159.413 149.118,153.957 149.268,151.400 149.837 M246.618 150.087 C 246.278 150.484,246.000 151.161,246.000 151.591 C 246.000 152.021,245.747 152.964,245.438 153.686 C 243.057 159.258,242.051 168.880,243.472 172.492 C 243.842 173.431,244.261 174.290,244.403 174.400 C 244.544 174.510,245.001 175.185,245.416 175.900 C 245.832 176.615,246.382 177.200,246.637 177.200 C 246.893 177.200,247.311 177.452,247.566 177.759 C 248.372 178.730,253.296 179.188,256.509 178.591 C 258.299 178.258,261.600 175.278,261.600 173.995 C 261.600 173.536,261.885 172.609,262.233 171.936 C 262.581 171.263,262.671 170.832,262.433 170.980 C 262.147 171.156,262.000 170.639,262.000 169.456 C 262.000 167.298,262.324 166.325,262.942 166.632 C 263.194 166.757,263.088 166.603,262.706 166.290 C 262.325 165.977,262.139 165.594,262.294 165.439 C 262.449 165.284,262.266 165.276,261.888 165.422 C 261.308 165.644,261.200 165.434,261.200 164.086 C 261.200 163.032,260.995 162.407,260.600 162.255 C 260.270 162.129,260.000 161.659,260.000 161.213 C 260.000 160.766,259.816 160.400,259.590 160.400 C 259.365 160.400,259.002 159.995,258.785 159.500 C 258.179 158.121,256.409 155.146,255.350 153.727 C 254.828 153.026,254.400 152.339,254.400 152.198 C 254.400 152.058,254.134 151.677,253.809 151.352 C 253.484 151.027,253.079 150.521,252.909 150.228 C 252.380 149.318,247.374 149.205,246.618 150.087 M163.300 150.276 C 163.685 150.376,164.315 150.376,164.700 150.276 C 165.085 150.175,164.770 150.093,164.000 150.093 C 163.230 150.093,162.915 150.175,163.300 150.276 M102.594 156.400 C 102.715 164.234,103.569 181.543,104.006 185.000 C 104.520 189.069,103.751 169.858,102.828 155.600 L 102.505 150.600 102.594 156.400 M143.800 151.814 C 142.185 152.554,143.151 152.555,144.854 151.816 C 145.594 151.494,145.930 151.239,145.600 151.248 C 145.270 151.257,144.460 151.512,143.800 151.814 M169.546 151.816 C 170.286 152.137,171.096 152.393,171.346 152.384 C 171.596 152.376,171.194 152.106,170.454 151.784 C 169.714 151.463,168.904 151.207,168.654 151.216 C 168.404 151.224,168.806 151.494,169.546 151.816 M93.400 168.400 C 93.264 168.620,93.264 168.980,93.400 169.200 C 93.536 169.420,93.469 169.600,93.252 169.600 C 92.611 169.600,92.798 179.853,93.454 180.701 C 93.914 181.296,93.989 180.401,93.962 174.700 C 93.930 168.090,93.888 167.611,93.400 168.400 M94.050 194.500 C 94.047 199.964,94.359 201.699,94.948 199.500 C 95.456 197.605,95.220 190.180,94.627 189.376 C 94.120 188.690,94.054 189.284,94.050 194.500 M104.588 195.000 C 104.704 202.957,105.547 219.887,106.001 223.400 C 106.309 225.777,106.334 225.475,106.169 221.400 C 105.867 213.970,105.172 199.957,104.819 194.200 L 104.500 189.000 104.588 195.000 M119.782 199.782 C 118.706 200.858,118.601 202.124,119.217 206.600 C 119.503 208.676,119.527 208.491,119.396 205.233 C 119.249 201.597,119.534 200.191,120.560 199.506 C 120.802 199.344,138.477 199.209,159.838 199.206 C 204.119 199.199,199.798 198.808,200.391 202.877 L 200.700 205.000 200.750 203.274 C 200.803 201.457,200.293 200.125,199.235 199.313 C 198.746 198.938,189.644 198.823,159.682 198.813 L 120.764 198.800 119.782 199.782 M200.884 209.677 C 200.807 213.594,200.725 214.007,199.911 214.577 C 199.422 214.920,199.214 215.200,199.449 215.200 C 200.805 215.200,201.230 213.743,201.099 209.552 L 200.969 205.400 200.884 209.677 M94.995 213.567 C 95.153 220.383,95.125 220.094,95.600 219.800 C 96.282 219.378,96.123 208.133,95.435 208.133 C 94.969 208.133,94.892 209.093,94.995 213.567 M119.670 212.238 C 119.598 213.930,120.449 215.211,121.631 215.189 C 121.944 215.184,121.714 214.877,121.119 214.508 C 120.293 213.996,120.003 213.457,119.889 212.219 L 119.740 210.600 119.670 212.238 M121.200 226.800 C 120.553 227.447,120.412 228.079,120.463 230.100 L 120.526 232.600 120.763 229.932 C 120.893 228.465,121.150 227.115,121.333 226.932 C 121.517 226.750,139.337 226.508,160.933 226.396 L 200.200 226.192 161.100 226.096 C 122.468 226.001,121.990 226.010,121.200 226.800 M200.848 227.000 C 201.204 227.440,201.595 228.070,201.716 228.400 C 201.903 228.909,201.942 228.904,201.968 228.362 C 201.986 228.011,201.595 227.381,201.100 226.962 C 200.208 226.206,200.206 226.207,200.848 227.000 M106.698 235.400 C 106.810 239.800,107.038 245.290,107.204 247.600 C 107.417 250.568,107.446 249.688,107.302 244.600 C 107.191 240.640,106.963 235.150,106.796 232.400 C 106.570 228.677,106.545 229.442,106.698 235.400 M96.021 233.621 C 96.061 237.976,96.203 239.599,96.538 239.488 C 97.231 239.258,97.389 229.314,96.712 228.479 C 96.287 227.954,96.296 227.904,96.762 228.185 C 97.143 228.415,97.232 228.375,97.038 228.062 C 96.204 226.712,95.971 227.988,96.021 233.621 M202.000 236.753 L 202.000 241.239 200.700 241.804 C 199.985 242.114,199.695 242.376,200.056 242.384 C 202.030 242.431,202.584 241.132,202.462 236.751 C 202.306 231.175,202.000 231.176,202.000 236.753 M120.846 238.476 C 120.821 239.508,120.942 240.441,121.116 240.548 C 121.290 240.656,121.370 240.082,121.293 239.272 C 121.059 236.798,120.895 236.507,120.846 238.476 M122.176 241.778 C 122.604 242.120,123.234 242.386,123.576 242.368 C 124.115 242.341,124.118 242.307,123.600 242.114 C 123.270 241.992,122.640 241.726,122.200 241.524 C 121.413 241.162,121.412 241.166,122.176 241.778 M96.800 246.700 C 96.800 246.949,96.989 247.269,97.219 247.412 C 97.469 247.566,97.496 247.859,97.287 248.136 C 96.656 248.970,97.032 258.765,97.722 259.455 C 98.328 260.061,97.999 247.832,97.387 247.024 C 97.064 246.596,96.800 246.451,96.800 246.700 M107.701 256.800 C 107.689 259.110,107.816 261.990,107.983 263.200 L 108.287 265.400 108.304 262.400 C 108.313 260.750,108.186 257.870,108.022 256.000 L 107.724 252.600 107.701 256.800 M108.469 270.716 C 108.396 276.343,108.801 277.993,110.672 279.685 C 112.880 281.681,110.681 281.607,164.487 281.504 L 214.600 281.408 163.800 281.198 C 135.860 281.083,112.961 280.947,112.914 280.895 C 112.867 280.843,112.174 280.226,111.375 279.525 C 109.342 277.739,109.098 276.913,108.801 270.800 L 108.539 265.400 108.469 270.716 M98.236 268.300 C 97.895 270.487,98.073 277.998,98.472 278.245 C 98.660 278.360,98.692 278.651,98.545 278.889 C 98.380 279.156,98.464 279.208,98.761 279.024 C 99.111 278.808,99.224 277.071,99.167 272.762 C 99.092 266.992,98.719 265.206,98.236 268.300 M98.846 285.524 C 98.813 286.484,98.937 286.765,99.300 286.547 C 99.679 286.319,99.675 286.400,99.284 286.884 C 98.687 287.621,99.804 290.800,100.661 290.800 C 100.921 290.800,101.204 291.012,101.290 291.271 C 101.377 291.530,101.655 291.613,101.909 291.456 C 102.408 291.148,101.150 289.600,100.400 289.600 C 100.180 289.600,100.000 288.916,100.000 288.080 C 100.000 287.244,99.837 286.389,99.639 286.180 C 99.440 285.971,99.191 285.440,99.085 285.000 C 98.963 284.491,98.876 284.681,98.846 285.524 M213.600 289.567 C 213.600 290.396,213.404 290.800,213.000 290.800 C 212.670 290.800,212.400 291.039,212.400 291.332 C 212.400 291.624,212.013 291.849,211.540 291.832 C 211.068 291.814,210.603 292.025,210.507 292.300 C 210.140 293.356,211.928 292.739,213.347 291.320 C 214.805 289.862,215.081 288.827,214.100 288.500 C 213.772 288.391,213.600 288.758,213.600 289.567 M102.098 292.100 C 102.188 292.375,102.778 292.660,103.408 292.734 C 104.415 292.852,104.490 292.791,104.028 292.234 C 103.403 291.481,101.859 291.374,102.098 292.100 M239.400 324.000 C 239.536 324.220,240.042 324.387,240.524 324.372 C 241.369 324.345,241.371 324.331,240.600 324.000 C 239.499 323.527,239.108 323.527,239.400 324.000 " stroke="none" fill="#800080" fill-rule="evenodd"></path></g></svg>